<svg width="390.195" height="31.026" viewBox="0 0 390.195 31.026" xmlns="http://www.w3.org/2000/svg"><g id="svgGroup" stroke-linecap="round" fill-rule="evenodd" font-size="9pt" stroke="#000" stroke-width="0.25mm" fill="#ffca7a" style="stroke:#000;stroke-width:0.25mm;"><path d="M 222.227 20.664 L 224.102 19.219 A 5.366 5.366 0 0 0 224.798 18.587 Q 225.107 18.256 225.407 17.843 A 9.838 9.838 0 0 0 225.605 17.559 A 18.578 18.578 0 0 0 226.318 16.406 A 24.251 24.251 0 0 0 227.012 15.098 A 44.508 44.508 0 0 0 227.859 13.273 A 53.637 53.637 0 0 0 228.359 12.09 Q 229.023 10.469 229.688 8.75 Q 230.156 7.5 230.645 6.27 A 52.327 52.327 0 0 1 231.388 4.49 A 46.474 46.474 0 0 1 231.641 3.926 A 42.128 42.128 0 0 1 232.144 2.861 A 33.005 33.005 0 0 1 232.637 1.895 Q 233.125 0.977 233.594 0.352 A 17.121 17.121 0 0 1 234.568 1.01 A 12.495 12.495 0 0 1 235.41 1.68 Q 236.172 2.344 236.738 3.145 A 6.438 6.438 0 0 1 237.456 4.478 A 7.622 7.622 0 0 1 237.637 4.98 A 10.077 10.077 0 0 1 237.894 5.957 Q 238.037 6.631 238.125 7.422 A 49.695 49.695 0 0 0 236.523 10.781 A 465.802 465.802 0 0 0 235.039 14.258 Q 234.102 16.523 233.105 18.77 A 40.052 40.052 0 0 1 230.898 23.047 A 24.674 24.674 0 0 1 228.184 26.777 A 14.663 14.663 0 0 1 224.727 29.648 A 6.363 6.363 0 0 0 224.338 29.577 Q 224.15 29.549 223.985 29.538 A 3.001 3.001 0 0 0 223.789 29.531 A 2.631 2.631 0 0 0 223.486 29.548 Q 223.331 29.566 223.199 29.603 A 1.363 1.363 0 0 0 223.066 29.648 Q 222.773 29.766 222.539 29.961 Q 220.938 29.219 219.961 27.754 A 32.671 32.671 0 0 1 218.77 25.819 A 40.336 40.336 0 0 1 218.047 24.492 A 6.573 6.573 0 0 0 217.793 23.965 A 23.191 23.191 0 0 0 217.577 23.573 A 26.435 26.435 0 0 0 217.5 23.438 L 216.836 22.227 L 216.445 21.484 L 215.898 21.992 L 215.078 22.734 L 214.609 23.203 Q 213.398 24.336 212.148 25.41 A 23.557 23.557 0 0 1 209.531 27.363 Q 208.164 28.242 206.621 28.789 A 10.366 10.366 0 0 1 203.756 29.357 A 11.812 11.812 0 0 1 203.32 29.375 Q 203.018 29.224 202.77 29.109 A 14.212 14.212 0 0 0 202.754 29.102 A 17.564 17.564 0 0 1 202.325 28.896 A 15.919 15.919 0 0 1 202.266 28.867 A 16.739 16.739 0 0 1 201.636 28.55 Q 201.147 28.291 200.781 28.047 A 5.153 5.153 0 0 1 200.396 27.761 Q 199.966 27.412 199.449 26.872 A 16.332 16.332 0 0 1 199.414 26.836 A 25.296 25.296 0 0 0 199.121 26.213 A 22.497 22.497 0 0 0 199.023 26.016 A 9.663 9.663 0 0 0 198.828 25.645 A 7.49 7.49 0 0 0 198.633 25.313 A 108.665 108.665 0 0 1 198.245 24.53 Q 198.01 24.05 197.813 23.633 A 11.814 11.814 0 0 1 197.476 22.845 Q 197.307 22.41 197.148 21.914 A 85.289 85.289 0 0 1 197.218 21.526 Q 197.326 20.93 197.513 19.929 A 653.486 653.486 0 0 1 197.559 19.688 A 138.519 138.519 0 0 1 197.876 18.052 A 180.373 180.373 0 0 1 198.242 16.27 A 167.763 167.763 0 0 1 199.082 12.5 Q 199.426 11.035 199.781 9.89 A 24.096 24.096 0 0 1 200 9.219 A 92.009 92.009 0 0 1 200.454 7.969 A 112.042 112.042 0 0 1 200.957 6.641 A 20.608 20.608 0 0 1 201.738 4.862 A 17.639 17.639 0 0 1 202.129 4.121 A 12.293 12.293 0 0 1 202.798 3.052 A 9.412 9.412 0 0 1 203.516 2.148 A 3.754 3.754 0 0 1 204.089 1.627 Q 204.501 1.327 204.946 1.21 A 2.27 2.27 0 0 1 205.117 1.172 A 2.301 2.301 0 0 0 205.357 1.446 A 1.737 1.737 0 0 0 205.625 1.66 A 2.924 2.924 0 0 0 205.849 1.791 Q 205.96 1.849 206.064 1.889 A 1.614 1.614 0 0 0 206.133 1.914 A 16.485 16.485 0 0 0 206.706 2.678 Q 207.002 3.048 207.29 3.357 A 9.555 9.555 0 0 0 207.422 3.496 A 10.213 10.213 0 0 0 208.199 4.215 A 13.161 13.161 0 0 0 208.906 4.766 Q 208.672 5.938 208.223 7.363 A 146.797 146.797 0 0 1 207.285 10.234 A 334.791 334.791 0 0 1 206.446 12.689 A 302.682 302.682 0 0 1 206.328 13.027 Q 205.969 14.059 205.725 14.873 A 26.84 26.84 0 0 0 205.586 15.352 A 23.537 23.537 0 0 0 205.381 16.08 Q 205.249 16.577 205.117 17.148 A 32.646 32.646 0 0 0 204.968 17.842 Q 204.841 18.462 204.707 19.219 A 57.554 57.554 0 0 0 204.497 20.488 A 74.302 74.302 0 0 0 204.297 21.875 Q 204.708 21.757 205.197 21.463 A 6.677 6.677 0 0 0 205.527 21.25 A 14.358 14.358 0 0 0 206.649 20.4 A 13.014 13.014 0 0 0 206.797 20.273 A 20.432 20.432 0 0 0 208.164 19.023 Q 209.063 18.125 209.688 17.383 Q 210.313 16.641 210.84 15.84 A 38.751 38.751 0 0 0 211.377 15 A 48.396 48.396 0 0 0 211.934 14.082 A 739.934 739.934 0 0 0 212.389 13.312 Q 212.793 12.627 213.281 11.797 A 119.326 119.326 0 0 0 213.999 10.625 A 141.996 141.996 0 0 0 214.746 9.375 A 54.151 54.151 0 0 1 216.094 7.209 A 49.396 49.396 0 0 1 216.289 6.914 Q 217.07 5.742 217.813 4.746 A 14.594 14.594 0 0 1 218.331 4.088 Q 218.779 3.553 219.18 3.203 A 12.429 12.429 0 0 0 219.644 3.643 A 16.539 16.539 0 0 0 220.176 4.102 A 3.489 3.489 0 0 0 221.191 4.694 A 3.293 3.293 0 0 0 221.406 4.766 A 12.546 12.546 0 0 0 221.675 5.171 A 9.33 9.33 0 0 0 221.934 5.527 A 87.707 87.707 0 0 1 222.363 6.093 A 79.149 79.149 0 0 1 222.422 6.172 A 341.22 341.22 0 0 1 222.72 6.582 A 251.792 251.792 0 0 1 222.988 6.953 A 4.424 4.424 0 0 1 223.361 7.573 A 5.056 5.056 0 0 1 223.437 7.734 A 7.767 7.767 0 0 1 223.407 7.949 Q 223.371 8.189 223.31 8.509 A 25.243 25.243 0 0 1 223.301 8.555 A 834.384 834.384 0 0 1 223.198 9.087 A 1086.21 1086.21 0 0 1 223.086 9.668 A 51.987 51.987 0 0 1 222.832 10.898 A 69.83 69.83 0 0 0 222.608 11.962 A 62.965 62.965 0 0 0 222.578 12.109 A 1266.025 1266.025 0 0 0 222.395 12.935 Q 222.139 14.092 221.992 14.766 Q 221.797 15.664 221.719 16.172 Q 221.665 16.521 221.639 16.796 A 6.104 6.104 0 0 0 221.621 17.031 A 9.413 9.413 0 0 0 221.613 17.224 Q 221.605 17.441 221.603 17.73 A 34.136 34.136 0 0 0 221.602 18.008 Q 221.602 18.477 221.68 18.945 A 26.215 26.215 0 0 0 221.855 19.824 A 2.308 2.308 0 0 0 222.227 20.664 Z M 66.719 14.219 L 69.961 12.07 A 8.774 8.774 0 0 0 70.375 12.369 Q 70.747 12.622 71.211 12.891 A 41.022 41.022 0 0 0 72.368 13.535 A 46 46 0 0 0 72.773 13.75 A 2232.174 2232.174 0 0 0 74.453 14.629 A 45.503 45.503 0 0 1 75.482 15.183 A 37.809 37.809 0 0 1 76.055 15.508 A 5.069 5.069 0 0 1 76.821 15.927 A 4.201 4.201 0 0 1 77.266 16.27 A 16.597 16.597 0 0 1 78.242 17.207 Q 78.711 17.695 79.18 18.164 A 3.836 3.836 0 0 0 80.012 18.79 A 4.559 4.559 0 0 0 80.313 18.945 A 3.466 3.466 0 0 0 80.291 19.171 Q 80.265 19.613 80.375 19.919 A 1.192 1.192 0 0 0 80.391 19.961 A 1.44 1.44 0 0 1 80.48 20.314 Q 80.507 20.522 80.485 20.764 A 2.729 2.729 0 0 1 80.469 20.898 A 8.636 8.636 0 0 1 79.24 22.596 A 7.712 7.712 0 0 1 78.672 23.145 Q 77.617 24.063 76.309 24.727 A 17.062 17.062 0 0 1 73.608 25.812 A 18.706 18.706 0 0 1 73.516 25.84 Q 72.031 26.289 70.469 26.699 A 163.326 163.326 0 0 0 67.324 27.559 Q 65.742 28.008 64.219 28.594 A 19.033 19.033 0 0 0 63.748 28.599 Q 63.379 28.608 63.086 28.633 A 9.574 9.574 0 0 0 62.35 28.722 A 8.57 8.57 0 0 0 62.188 28.75 L 61.328 28.906 A 8.317 8.317 0 0 1 60.82 28.982 A 10.47 10.47 0 0 1 60.391 29.023 A 0.547 0.547 0 0 0 60.35 29.017 Q 60.189 28.997 60.137 29.102 A 0.498 0.498 0 0 1 59.982 29.282 A 0.594 0.594 0 0 1 59.961 29.297 A 11.515 11.515 0 0 1 59.263 29.381 Q 58.887 29.414 58.555 29.414 L 57.5 29.414 A 4.216 4.216 0 0 0 56.667 29.5 A 4.972 4.972 0 0 0 56.367 29.57 Q 55.898 29.695 55.48 29.695 A 2.689 2.689 0 0 1 55.273 29.687 A 8.895 8.895 0 0 1 52.805 29.247 A 6.765 6.765 0 0 1 49.766 27.188 A 8.472 8.472 0 0 1 48.189 24.303 Q 47.802 23.122 47.652 21.71 A 16.679 16.679 0 0 1 47.578 20.742 A 0.547 0.547 0 0 0 47.585 20.701 Q 47.604 20.54 47.5 20.488 A 0.846 0.846 0 0 1 47.39 20.423 A 0.653 0.653 0 0 1 47.305 20.352 Q 47.305 19.922 47.422 19.57 A 1.313 1.313 0 0 0 47.476 19.334 Q 47.515 19.05 47.461 18.672 Q 48.672 16.094 50.215 13.887 A 18.01 18.01 0 0 1 53.906 10 A 3.418 3.418 0 0 0 54.215 9.731 A 2.509 2.509 0 0 0 54.473 9.434 A 21.408 21.408 0 0 1 54.902 8.867 Q 55.117 8.594 55.391 8.379 Q 55.652 8.174 56.056 8.093 A 2.303 2.303 0 0 1 56.094 8.086 A 11.643 11.643 0 0 1 57.768 6.504 A 13.72 13.72 0 0 1 58.438 6.016 A 44.191 44.191 0 0 1 61.289 4.219 A 252.867 252.867 0 0 0 64.277 2.461 A 19.424 19.424 0 0 0 66.368 1.025 A 17.104 17.104 0 0 0 66.992 0.508 A 1.912 1.912 0 0 0 67.162 0.605 Q 67.45 0.749 67.644 0.694 A 0.367 0.367 0 0 0 67.676 0.684 A 0.796 0.796 0 0 1 67.964 0.629 Q 68.067 0.629 68.173 0.656 A 0.97 0.97 0 0 1 68.203 0.664 A 2.846 2.846 0 0 0 68.49 1.149 Q 68.763 1.514 69.121 1.699 A 49.125 49.125 0 0 0 70.293 2.285 A 6.332 6.332 0 0 1 71.426 2.988 A 2.416 2.416 0 0 1 72.074 3.768 A 3.048 3.048 0 0 1 72.227 4.102 A 0.566 0.566 0 0 0 72.137 4.108 Q 71.959 4.137 71.972 4.293 A 0.276 0.276 0 0 0 71.973 4.297 A 1.678 1.678 0 0 0 72.006 4.499 Q 72.028 4.594 72.061 4.697 A 2.766 2.766 0 0 0 72.07 4.727 A 1.678 1.678 0 0 1 72.124 4.924 Q 72.145 5.031 72.148 5.129 A 0.998 0.998 0 0 1 72.148 5.156 A 0.161 0.161 0 0 1 72.046 5.31 Q 71.972 5.345 71.844 5.351 A 1.14 1.14 0 0 1 71.797 5.352 A 0.394 0.394 0 0 0 71.81 5.46 Q 71.845 5.581 71.969 5.613 A 0.403 0.403 0 0 0 72.07 5.625 A 0.394 0.394 0 0 1 72.179 5.639 Q 72.3 5.673 72.332 5.797 A 0.403 0.403 0 0 1 72.344 5.898 A 0.911 0.911 0 0 1 72.332 6.046 Q 72.311 6.179 72.246 6.27 A 0.271 0.271 0 0 0 72.205 6.359 Q 72.176 6.472 72.211 6.65 A 1.448 1.448 0 0 0 72.227 6.719 A 17.088 17.088 0 0 1 70.971 7.477 A 20.795 20.795 0 0 1 70.137 7.91 A 3992.711 3992.711 0 0 0 68.955 8.491 A 4615.017 4615.017 0 0 0 67.715 9.102 A 61.736 61.736 0 0 0 65.178 10.427 A 66.576 66.576 0 0 0 65.137 10.449 A 24.526 24.526 0 0 0 62.862 11.878 A 27.081 27.081 0 0 0 62.539 12.109 Q 61.25 13.047 59.941 14.18 A 36.45 36.45 0 0 0 57.422 16.582 Q 56.211 17.852 55.156 19.199 A 24.621 24.621 0 0 0 54.014 20.779 A 19.944 19.944 0 0 0 53.359 21.836 A 1.215 1.215 0 0 0 53.574 22.188 A 1.215 1.215 0 0 1 53.789 22.539 A 24.668 24.668 0 0 0 54.914 22.573 Q 55.628 22.578 56.292 22.538 A 17.98 17.98 0 0 0 56.563 22.52 A 8.978 8.978 0 0 1 57.241 22.494 A 9.132 9.132 0 0 1 59.141 22.695 A 0.5 0.5 0 0 0 59.336 22.383 A 0.348 0.348 0 0 1 59.508 22.14 A 0.471 0.471 0 0 1 59.57 22.109 A 34.604 34.604 0 0 0 62.981 21.592 A 29.191 29.191 0 0 0 64.531 21.23 Q 66.836 20.625 69.219 20 A 18.745 18.745 0 0 0 68.713 19.811 Q 68.436 19.713 68.188 19.636 A 10.174 10.174 0 0 0 67.969 19.57 A 0.573 0.573 0 0 1 67.916 19.51 Q 67.785 19.335 67.943 19.196 A 0.489 0.489 0 0 1 67.988 19.16 Q 68.24 18.986 68.396 18.792 A 1.369 1.369 0 0 0 68.398 18.789 Q 67.773 18.438 67.363 17.852 A 2.493 2.493 0 0 1 67.036 17.178 Q 66.941 16.88 66.896 16.529 A 4.647 4.647 0 0 1 66.875 16.328 A 0.877 0.877 0 0 0 67.039 16.145 A 0.649 0.649 0 0 0 67.148 15.781 A 0.582 0.582 0 0 0 66.947 15.332 A 0.808 0.808 0 0 0 66.875 15.273 A 0.844 0.844 0 0 0 66.829 15.256 Q 66.675 15.205 66.641 15.273 A 0.784 0.784 0 0 0 66.592 15.396 A 0.699 0.699 0 0 0 66.582 15.43 A 0.388 0.388 0 0 1 66.548 15.518 A 0.524 0.524 0 0 1 66.504 15.586 Q 66.448 15.66 66.304 15.593 A 0.596 0.596 0 0 1 66.289 15.586 A 2.354 2.354 0 0 1 66.335 15.286 Q 66.369 15.133 66.423 15.008 A 1.204 1.204 0 0 1 66.484 14.883 Q 66.641 14.609 66.719 14.219 Z M 237.871 27.539 A 1.809 1.809 0 0 0 238.32 28.281 A 4.72 4.72 0 0 0 239.266 28.983 A 5.563 5.563 0 0 0 240.664 29.531 A 13.468 13.468 0 0 0 243.594 29.922 A 19.789 19.789 0 0 0 244.101 29.928 A 19.547 19.547 0 0 0 246.621 29.766 A 76.551 76.551 0 0 0 247.521 29.644 Q 248.467 29.509 249.219 29.375 A 1.902 1.902 0 0 1 249.824 29.473 A 1.009 1.009 0 0 0 249.986 29.512 Q 250.156 29.538 250.363 29.518 A 2.262 2.262 0 0 0 250.547 29.492 A 144.466 144.466 0 0 1 252.222 29.204 A 104.925 104.925 0 0 1 253.73 28.965 A 13.825 13.825 0 0 0 254.844 28.752 A 10.951 10.951 0 0 0 256.309 28.301 A 6.774 6.774 0 0 0 258.379 27.031 A 5.181 5.181 0 0 0 258.765 26.646 Q 259.126 26.248 259.458 25.731 A 10.236 10.236 0 0 0 260.039 24.688 A 1.177 1.177 0 0 1 259.972 24.694 Q 259.714 24.711 259.609 24.59 A 0.64 0.64 0 0 1 259.566 24.533 Q 259.52 24.466 259.486 24.381 A 1.203 1.203 0 0 1 259.434 24.219 A 13.825 13.825 0 0 1 259.375 23.975 A 17.214 17.214 0 0 1 259.316 23.711 A 0.922 0.922 0 0 0 259.063 23.242 A 1.287 1.287 0 0 1 258.993 23.253 Q 258.894 23.265 258.803 23.26 A 0.727 0.727 0 0 1 258.359 23.086 A 3.274 3.274 0 0 1 258.124 22.862 A 4.095 4.095 0 0 1 257.832 22.52 A 23.507 23.507 0 0 0 257.305 21.855 A 1.618 1.618 0 0 0 257.296 21.845 A 1.347 1.347 0 0 0 256.641 21.406 A 12.532 12.532 0 0 1 255.922 21.613 A 14.745 14.745 0 0 1 254.277 21.934 A 8.851 8.851 0 0 0 253.294 22.125 A 6.828 6.828 0 0 0 252.031 22.578 A 28.175 28.175 0 0 0 251.852 22.574 Q 250.989 22.556 250.292 22.596 A 11.875 11.875 0 0 0 249.59 22.656 A 292.378 292.378 0 0 0 249.466 22.671 A 267.477 267.477 0 0 0 247.656 22.891 Q 246.719 23.008 245.664 23.047 A 7.577 7.577 0 0 1 245.645 23.048 Q 244.936 23.072 243.981 22.974 A 22.908 22.908 0 0 1 243.008 22.852 Q 243.477 21.602 244.102 20.488 A 26.698 26.698 0 0 1 245.43 18.359 Q 245.729 18.466 246.08 18.515 A 4.542 4.542 0 0 0 246.699 18.555 A 5.292 5.292 0 0 1 246.742 18.555 Q 247.063 18.557 247.348 18.599 A 3.225 3.225 0 0 1 247.969 18.75 Q 248.325 18.588 248.828 18.601 A 3.267 3.267 0 0 1 249.043 18.613 A 3.448 3.448 0 0 0 249.153 18.622 Q 249.721 18.655 250.078 18.477 Q 250.207 18.58 250.31 18.615 A 0.311 0.311 0 0 0 250.41 18.633 L 250.742 18.633 A 7.593 7.593 0 0 0 251.013 18.638 Q 251.219 18.638 251.419 18.626 A 6.062 6.062 0 0 0 252.773 18.398 A 9.963 9.963 0 0 0 253.007 18.327 A 8.861 8.861 0 0 0 254.512 17.695 A 14.489 14.489 0 0 0 256.055 16.738 A 44.513 44.513 0 0 1 257.578 15.703 A 1.969 1.969 0 0 0 257.658 15.475 Q 257.754 15.129 257.695 14.805 Q 257.617 14.375 257.422 13.984 Q 257.288 13.996 257.163 13.986 A 1.244 1.244 0 0 1 256.602 13.809 A 3.295 3.295 0 0 1 256.33 13.623 A 4.004 4.004 0 0 1 255.918 13.262 A 15.989 15.989 0 0 1 255.273 12.578 A 3.916 3.916 0 0 0 255.095 12.39 A 3.305 3.305 0 0 0 254.609 11.992 A 0.903 0.903 0 0 1 254.61 11.959 Q 254.616 11.79 254.688 11.719 A 0.152 0.152 0 0 0 254.712 11.686 Q 254.751 11.619 254.735 11.496 A 0.748 0.748 0 0 0 254.727 11.445 A 82.935 82.935 0 0 0 250.82 11.699 A 25.447 25.447 0 0 1 250.171 11.748 Q 248.557 11.849 247.188 11.719 A 1.522 1.522 0 0 1 247.109 11.409 Q 247.079 11.21 247.09 10.977 A 1.72 1.72 0 0 0 247.092 10.898 Q 247.092 10.752 247.067 10.605 A 1.984 1.984 0 0 0 246.914 10.117 A 72.397 72.397 0 0 0 247.754 9.883 A 1.858 1.858 0 0 0 248.477 9.492 Q 248.801 9.546 249.059 9.526 A 1.459 1.459 0 0 0 249.277 9.492 Q 249.609 9.414 249.883 9.336 A 2.998 2.998 0 0 1 250.052 9.293 A 2.53 2.53 0 0 1 250.41 9.238 Q 250.57 9.226 250.752 9.268 A 1.748 1.748 0 0 1 250.977 9.336 A 9.63 9.63 0 0 1 251.359 9.113 A 8.42 8.42 0 0 1 253.047 8.398 A 17.909 17.909 0 0 1 255.137 7.91 Q 256.172 7.734 257.168 7.578 Q 258.164 7.422 259.063 7.109 Q 259.961 6.797 260.762 6.211 A 4.684 4.684 0 0 0 261.585 5.43 A 6.503 6.503 0 0 0 262.188 4.57 A 4.328 4.328 0 0 1 262.164 4.472 Q 262.129 4.318 262.117 4.202 A 1.11 1.11 0 0 1 262.109 4.082 A 1.572 1.572 0 0 1 262.109 4.071 Q 262.11 3.989 262.119 3.916 A 0.972 0.972 0 0 1 262.148 3.77 A 1.752 1.752 0 0 0 262.171 3.682 A 2.039 2.039 0 0 0 262.207 3.477 A 0.641 0.641 0 0 0 262.208 3.465 Q 262.222 3.342 262.201 3.107 A 5.681 5.681 0 0 0 262.188 2.969 Q 261.289 2.578 260.547 2.051 Q 259.805 1.523 259.336 0.703 A 0.814 0.814 0 0 1 259.342 0.735 Q 259.368 0.903 259.297 0.957 Q 259.219 1.016 259.121 0.977 A 1.717 1.717 0 0 0 259.073 0.958 Q 258.991 0.928 258.887 0.898 A 1.759 1.759 0 0 0 258.861 0.891 Q 258.783 0.87 258.726 0.863 A 0.436 0.436 0 0 0 258.672 0.859 A 0.646 0.646 0 0 0 258.672 0.873 Q 258.673 0.911 258.678 0.953 A 1.11 1.11 0 0 0 258.691 1.035 A 0.959 0.959 0 0 1 258.705 1.126 A 1.225 1.225 0 0 1 258.711 1.25 A 0.619 0.619 0 0 1 258.617 1.243 Q 258.478 1.222 258.387 1.134 A 0.474 0.474 0 0 1 258.281 0.977 L 258.027 0.977 A 0.125 0.125 0 0 1 257.956 0.956 Q 257.913 0.928 257.891 0.859 Q 256.77 1.057 255.798 1.199 A 47.539 47.539 0 0 1 254.375 1.387 A 87.594 87.594 0 0 0 253.621 1.477 A 78.319 78.319 0 0 0 251.445 1.777 Q 250.039 1.992 248.555 2.324 A 30.231 30.231 0 0 0 248.129 2.423 Q 247.48 2.578 246.761 2.778 A 52.578 52.578 0 0 0 245.195 3.242 A 67.167 67.167 0 0 1 244.17 3.462 A 55.722 55.722 0 0 1 243.203 3.652 Q 242.266 3.828 241.465 4.121 A 7.444 7.444 0 0 0 241.365 4.158 A 6.684 6.684 0 0 0 240 4.863 A 4.018 4.018 0 0 0 239.959 4.892 A 4.162 4.162 0 0 0 238.867 6.016 A 9.15 9.15 0 0 1 238.903 6.138 A 8.255 8.255 0 0 1 239.18 7.559 Q 239.258 8.32 239.414 9.063 A 8.62 8.62 0 0 0 239.863 10.527 A 3.432 3.432 0 0 0 240.249 11.226 A 4.369 4.369 0 0 0 240.82 11.875 A 14.45 14.45 0 0 1 240.536 12.627 A 11.402 11.402 0 0 1 240.137 13.496 A 148.693 148.693 0 0 0 239.414 14.922 Q 239.063 15.625 238.75 16.367 A 16.982 16.982 0 0 0 238.521 16.94 A 20.134 20.134 0 0 0 238.164 17.969 Q 237.927 17.909 237.836 18.019 A 0.227 0.227 0 0 0 237.793 18.105 Q 237.753 18.254 237.629 18.318 A 0.43 0.43 0 0 1 237.5 18.359 A 1.142 1.142 0 0 1 237.535 18.637 A 1.159 1.159 0 0 1 237.48 18.984 A 2.795 2.795 0 0 1 237.207 19.59 A 24.989 24.989 0 0 0 236.855 20.195 Q 236.68 20.508 236.602 20.859 Q 236.484 21.523 236.543 22.324 A 16.793 16.793 0 0 0 236.738 23.926 A 186.811 186.811 0 0 0 237.012 25.488 Q 237.089 25.917 237.147 26.29 A 24.367 24.367 0 0 1 237.227 26.836 A 2.054 2.054 0 0 1 237.276 26.864 Q 237.741 27.131 237.871 27.539 Z M 341.152 27.539 A 1.809 1.809 0 0 0 341.602 28.281 A 4.72 4.72 0 0 0 342.547 28.983 A 5.563 5.563 0 0 0 343.945 29.531 A 13.468 13.468 0 0 0 346.875 29.922 A 19.789 19.789 0 0 0 347.382 29.928 A 19.547 19.547 0 0 0 349.902 29.766 A 76.551 76.551 0 0 0 350.802 29.644 Q 351.748 29.509 352.5 29.375 A 1.902 1.902 0 0 1 353.105 29.473 A 1.009 1.009 0 0 0 353.267 29.512 Q 353.437 29.538 353.644 29.518 A 2.262 2.262 0 0 0 353.828 29.492 A 144.466 144.466 0 0 1 355.503 29.204 A 104.925 104.925 0 0 1 357.012 28.965 A 13.825 13.825 0 0 0 358.125 28.752 A 10.951 10.951 0 0 0 359.59 28.301 A 6.774 6.774 0 0 0 361.66 27.031 A 5.181 5.181 0 0 0 362.046 26.646 Q 362.408 26.248 362.739 25.731 A 10.236 10.236 0 0 0 363.32 24.688 A 1.177 1.177 0 0 1 363.253 24.694 Q 362.995 24.711 362.891 24.59 A 0.64 0.64 0 0 1 362.847 24.533 Q 362.802 24.466 362.767 24.381 A 1.203 1.203 0 0 1 362.715 24.219 A 13.825 13.825 0 0 1 362.656 23.975 A 17.214 17.214 0 0 1 362.598 23.711 A 0.922 0.922 0 0 0 362.344 23.242 A 1.287 1.287 0 0 1 362.274 23.253 Q 362.175 23.265 362.085 23.26 A 0.727 0.727 0 0 1 361.641 23.086 A 3.274 3.274 0 0 1 361.405 22.862 A 4.095 4.095 0 0 1 361.113 22.52 A 23.507 23.507 0 0 0 360.586 21.855 A 1.618 1.618 0 0 0 360.577 21.845 A 1.347 1.347 0 0 0 359.922 21.406 A 12.532 12.532 0 0 1 359.203 21.613 A 14.745 14.745 0 0 1 357.559 21.934 A 8.851 8.851 0 0 0 356.575 22.125 A 6.828 6.828 0 0 0 355.313 22.578 A 28.175 28.175 0 0 0 355.134 22.574 Q 354.27 22.556 353.573 22.596 A 11.875 11.875 0 0 0 352.871 22.656 A 292.378 292.378 0 0 0 352.747 22.671 A 267.477 267.477 0 0 0 350.938 22.891 Q 350 23.008 348.945 23.047 A 7.577 7.577 0 0 1 348.926 23.048 Q 348.217 23.072 347.262 22.974 A 22.908 22.908 0 0 1 346.289 22.852 Q 346.758 21.602 347.383 20.488 A 26.698 26.698 0 0 1 348.711 18.359 Q 349.01 18.466 349.362 18.515 A 4.542 4.542 0 0 0 349.98 18.555 A 5.292 5.292 0 0 1 350.023 18.555 Q 350.344 18.557 350.629 18.599 A 3.225 3.225 0 0 1 351.25 18.75 Q 351.606 18.588 352.11 18.601 A 3.267 3.267 0 0 1 352.324 18.613 A 3.448 3.448 0 0 0 352.434 18.622 Q 353.003 18.655 353.359 18.477 Q 353.488 18.58 353.592 18.615 A 0.311 0.311 0 0 0 353.691 18.633 L 354.023 18.633 A 7.593 7.593 0 0 0 354.294 18.638 Q 354.5 18.638 354.7 18.626 A 6.062 6.062 0 0 0 356.055 18.398 A 9.963 9.963 0 0 0 356.289 18.327 A 8.861 8.861 0 0 0 357.793 17.695 A 14.489 14.489 0 0 0 359.336 16.738 A 44.513 44.513 0 0 1 360.859 15.703 A 1.969 1.969 0 0 0 360.939 15.475 Q 361.036 15.129 360.977 14.805 Q 360.898 14.375 360.703 13.984 Q 360.569 13.996 360.445 13.986 A 1.244 1.244 0 0 1 359.883 13.809 A 3.295 3.295 0 0 1 359.611 13.623 A 4.004 4.004 0 0 1 359.199 13.262 A 15.989 15.989 0 0 1 358.555 12.578 A 3.916 3.916 0 0 0 358.376 12.39 A 3.305 3.305 0 0 0 357.891 11.992 A 0.903 0.903 0 0 1 357.891 11.959 Q 357.897 11.79 357.969 11.719 A 0.152 0.152 0 0 0 357.993 11.686 Q 358.032 11.619 358.016 11.496 A 0.748 0.748 0 0 0 358.008 11.445 A 82.935 82.935 0 0 0 354.102 11.699 A 25.447 25.447 0 0 1 353.452 11.748 Q 351.838 11.849 350.469 11.719 A 1.522 1.522 0 0 1 350.39 11.409 Q 350.36 11.21 350.371 10.977 A 1.72 1.72 0 0 0 350.373 10.898 Q 350.373 10.752 350.348 10.605 A 1.984 1.984 0 0 0 350.195 10.117 A 72.397 72.397 0 0 0 351.035 9.883 A 1.858 1.858 0 0 0 351.758 9.492 Q 352.082 9.546 352.341 9.526 A 1.459 1.459 0 0 0 352.559 9.492 Q 352.891 9.414 353.164 9.336 A 2.998 2.998 0 0 1 353.333 9.293 A 2.53 2.53 0 0 1 353.691 9.238 Q 353.851 9.226 354.034 9.268 A 1.748 1.748 0 0 1 354.258 9.336 A 9.63 9.63 0 0 1 354.64 9.113 A 8.42 8.42 0 0 1 356.328 8.398 A 17.909 17.909 0 0 1 358.418 7.91 Q 359.453 7.734 360.449 7.578 Q 361.445 7.422 362.344 7.109 Q 363.242 6.797 364.043 6.211 A 4.684 4.684 0 0 0 364.866 5.43 A 6.503 6.503 0 0 0 365.469 4.57 A 4.328 4.328 0 0 1 365.445 4.472 Q 365.411 4.318 365.398 4.202 A 1.11 1.11 0 0 1 365.391 4.082 A 1.572 1.572 0 0 1 365.391 4.071 Q 365.391 3.989 365.4 3.916 A 0.972 0.972 0 0 1 365.43 3.77 A 1.752 1.752 0 0 0 365.452 3.682 A 2.039 2.039 0 0 0 365.488 3.477 A 0.641 0.641 0 0 0 365.49 3.465 Q 365.503 3.342 365.482 3.107 A 5.681 5.681 0 0 0 365.469 2.969 Q 364.57 2.578 363.828 2.051 Q 363.086 1.523 362.617 0.703 A 0.814 0.814 0 0 1 362.623 0.735 Q 362.65 0.903 362.578 0.957 Q 362.5 1.016 362.402 0.977 A 1.717 1.717 0 0 0 362.354 0.958 Q 362.273 0.928 362.168 0.898 A 1.759 1.759 0 0 0 362.142 0.891 Q 362.064 0.87 362.007 0.863 A 0.436 0.436 0 0 0 361.953 0.859 A 0.646 0.646 0 0 0 361.953 0.873 Q 361.954 0.911 361.959 0.953 A 1.11 1.11 0 0 0 361.973 1.035 A 0.959 0.959 0 0 1 361.986 1.126 A 1.225 1.225 0 0 1 361.992 1.25 A 0.619 0.619 0 0 1 361.899 1.243 Q 361.76 1.222 361.668 1.134 A 0.474 0.474 0 0 1 361.563 0.977 L 361.309 0.977 A 0.125 0.125 0 0 1 361.237 0.956 Q 361.195 0.928 361.172 0.859 Q 360.051 1.057 359.079 1.199 A 47.539 47.539 0 0 1 357.656 1.387 A 87.594 87.594 0 0 0 356.902 1.477 A 78.319 78.319 0 0 0 354.727 1.777 Q 353.32 1.992 351.836 2.324 A 30.231 30.231 0 0 0 351.411 2.423 Q 350.761 2.578 350.042 2.778 A 52.578 52.578 0 0 0 348.477 3.242 A 67.167 67.167 0 0 1 347.451 3.462 A 55.722 55.722 0 0 1 346.484 3.652 Q 345.547 3.828 344.746 4.121 A 7.444 7.444 0 0 0 344.647 4.158 A 6.684 6.684 0 0 0 343.281 4.863 A 4.018 4.018 0 0 0 343.24 4.892 A 4.162 4.162 0 0 0 342.148 6.016 A 9.15 9.15 0 0 1 342.184 6.138 A 8.255 8.255 0 0 1 342.461 7.559 Q 342.539 8.32 342.695 9.063 A 8.62 8.62 0 0 0 343.145 10.527 A 3.432 3.432 0 0 0 343.53 11.226 A 4.369 4.369 0 0 0 344.102 11.875 A 14.45 14.45 0 0 1 343.817 12.627 A 11.402 11.402 0 0 1 343.418 13.496 A 148.693 148.693 0 0 0 342.695 14.922 Q 342.344 15.625 342.031 16.367 A 16.982 16.982 0 0 0 341.802 16.94 A 20.134 20.134 0 0 0 341.445 17.969 Q 341.208 17.909 341.117 18.019 A 0.227 0.227 0 0 0 341.074 18.105 Q 341.034 18.254 340.91 18.318 A 0.43 0.43 0 0 1 340.781 18.359 A 1.142 1.142 0 0 1 340.816 18.637 A 1.159 1.159 0 0 1 340.762 18.984 A 2.795 2.795 0 0 1 340.488 19.59 A 24.989 24.989 0 0 0 340.137 20.195 Q 339.961 20.508 339.883 20.859 Q 339.766 21.523 339.824 22.324 A 16.793 16.793 0 0 0 340.02 23.926 A 186.811 186.811 0 0 0 340.293 25.488 Q 340.37 25.917 340.428 26.29 A 24.367 24.367 0 0 1 340.508 26.836 A 2.054 2.054 0 0 1 340.557 26.864 Q 341.022 27.131 341.152 27.539 Z M 329.648 28.789 L 329.844 28.438 A 10.063 10.063 0 0 1 328.532 26.832 A 9.367 9.367 0 0 1 328.496 26.777 A 3.342 3.342 0 0 1 327.968 25.04 Q 327.964 24.905 327.969 24.766 A 0.191 0.191 0 0 1 327.97 24.749 Q 327.978 24.671 328.038 24.292 A 73.022 73.022 0 0 1 328.047 24.238 A 53.403 53.403 0 0 1 328.13 23.735 A 63.582 63.582 0 0 1 328.223 23.203 A 55.369 55.369 0 0 1 328.32 22.671 A 46.993 46.993 0 0 1 328.418 22.168 Q 328.511 21.704 328.515 21.646 A 0.066 0.066 0 0 0 328.516 21.641 A 10.241 10.241 0 0 0 326.975 21.931 A 12.245 12.245 0 0 0 326.25 22.148 A 26.731 26.731 0 0 0 323.965 23.027 A 26.901 26.901 0 0 0 322.508 23.717 A 22.914 22.914 0 0 0 321.895 24.043 A 82.217 82.217 0 0 0 321.439 24.296 Q 320.791 24.658 320.352 24.922 A 0.343 0.343 0 0 1 320.345 24.981 Q 320.316 25.136 320.167 25.556 A 16.513 16.513 0 0 1 320.156 25.586 Q 319.961 26.133 319.688 26.738 A 7.091 7.091 0 0 1 319.361 27.376 A 5.699 5.699 0 0 1 319.082 27.813 Q 318.75 28.281 318.398 28.242 A 1.98 1.98 0 0 0 318.447 28.355 Q 318.496 28.458 318.545 28.523 A 0.542 0.542 0 0 0 318.555 28.535 Q 318.631 28.631 318.558 28.894 A 1.55 1.55 0 0 1 318.555 28.906 Q 317.891 29.102 317.363 29.414 A 7.449 7.449 0 0 1 316.289 29.941 A 2.886 2.886 0 0 1 315.367 30.134 Q 315.286 30.138 315.204 30.138 A 3.524 3.524 0 0 1 315.098 30.137 A 2.399 2.399 0 0 1 314.59 30.062 Q 314.342 30 314.065 29.887 A 6.024 6.024 0 0 1 313.555 29.648 A 0.61 0.61 0 0 0 313.414 29.261 A 0.875 0.875 0 0 0 313.32 29.16 A 3.261 3.261 0 0 0 312.895 28.829 A 2.984 2.984 0 0 0 312.832 28.789 A 59.207 59.207 0 0 0 312.621 28.66 Q 312.525 28.601 312.439 28.549 A 33.091 33.091 0 0 0 312.383 28.516 A 0.798 0.798 0 0 1 312.304 28.463 Q 312.225 28.401 312.2 28.34 A 0.151 0.151 0 0 1 312.187 28.281 A 0.211 0.211 0 0 1 312.164 28.288 Q 312.066 28.308 312.031 28.203 A 0.492 0.492 0 0 1 312.005 28.049 Q 312.005 28.009 312.012 27.969 A 0.308 0.308 0 0 1 312.126 27.776 A 0.389 0.389 0 0 1 312.129 27.773 A 0.175 0.175 0 0 1 312.241 27.734 Q 312.291 27.734 312.35 27.759 A 0.48 0.48 0 0 1 312.383 27.773 A 4.946 4.946 0 0 1 312.09 27.376 Q 311.956 27.173 311.867 26.984 A 2.066 2.066 0 0 1 311.738 26.641 A 3.96 3.96 0 0 0 311.614 26.264 Q 311.541 26.071 311.44 25.852 A 9.995 9.995 0 0 0 311.211 25.391 Q 311.316 25.286 311.358 25.103 A 0.952 0.952 0 0 0 311.367 25.059 A 3.829 3.829 0 0 1 311.451 24.698 A 3.461 3.461 0 0 1 311.465 24.648 A 1.034 1.034 0 0 1 311.509 24.528 Q 311.535 24.469 311.566 24.423 A 0.458 0.458 0 0 1 311.621 24.355 A 0.138 0.138 0 0 1 311.656 24.33 Q 311.745 24.284 311.875 24.414 A 2.641 2.641 0 0 1 311.848 24.234 Q 311.825 24.023 311.846 23.857 A 0.972 0.972 0 0 1 311.875 23.711 A 4.928 4.928 0 0 1 311.98 23.384 A 4.157 4.157 0 0 1 312.051 23.203 A 2.153 2.153 0 0 0 312.176 22.797 A 1.97 1.97 0 0 0 312.188 22.734 A 0.588 0.588 0 0 0 312.195 22.638 Q 312.195 22.438 312.07 22.188 Q 312.813 21.172 313.047 19.98 A 16.877 16.877 0 0 0 313.228 18.877 Q 313.298 18.334 313.319 17.844 A 10.361 10.361 0 0 0 313.32 17.813 A 2.472 2.472 0 0 0 313.643 17.41 Q 313.773 17.21 313.885 16.967 A 4.318 4.318 0 0 0 313.926 16.875 Q 314.18 16.289 314.297 15.664 A 6.667 6.667 0 0 0 314.414 14.434 A 3.837 3.837 0 0 0 314.399 14.08 Q 314.365 13.718 314.258 13.477 A 0.31 0.31 0 0 1 314.286 13.401 Q 314.334 13.315 314.434 13.301 Q 314.557 13.283 314.73 13.314 A 1.643 1.643 0 0 1 314.766 13.32 Q 315.039 11.758 315.137 9.844 A 33.428 33.428 0 0 1 315.457 6.599 A 30.517 30.517 0 0 1 315.527 6.152 A 12.826 12.826 0 0 1 315.913 4.482 A 9.738 9.738 0 0 1 316.484 3.027 A 3.271 3.271 0 0 1 317.436 1.846 A 3.32 3.32 0 0 1 318.594 1.289 A 7.687 7.687 0 0 0 318.945 2.287 A 6.077 6.077 0 0 0 319.316 3.008 A 17.577 17.577 0 0 0 320.293 4.453 Q 320.82 5.156 321.367 5.859 A 11.135 11.135 0 0 1 322.144 7.002 A 12.867 12.867 0 0 1 322.383 7.422 A 22.953 22.953 0 0 1 322.33 8.26 Q 322.295 8.69 322.244 9.168 A 40.503 40.503 0 0 1 322.207 9.492 A 40.524 40.524 0 0 1 321.855 11.875 A 203.918 203.918 0 0 1 321.479 13.934 A 184.982 184.982 0 0 1 321.426 14.219 Q 321.278 14.998 321.14 15.61 A 23.745 23.745 0 0 1 321.016 16.133 A 0.296 0.296 0 0 0 321.181 16.347 A 0.508 0.508 0 0 0 321.289 16.387 A 0.202 0.202 0 0 1 321.366 16.423 Q 321.485 16.516 321.382 16.798 A 1.363 1.363 0 0 1 321.367 16.836 A 70.648 70.648 0 0 1 323.121 16.437 A 79.04 79.04 0 0 1 323.73 16.309 A 381.911 381.911 0 0 0 326.152 15.801 Q 327.344 15.547 328.496 15.195 Q 329.648 14.844 330.664 14.336 A 57.934 57.934 0 0 1 331.25 10.625 A 11.024 11.024 0 0 0 331.448 8.547 A 11.304 11.304 0 0 0 331.328 6.914 Q 331.563 6.719 331.719 6.445 A 0.715 0.715 0 0 1 332.168 6.099 A 0.899 0.899 0 0 1 332.188 6.094 A 6.343 6.343 0 0 1 331.987 4.534 Q 331.987 4.508 331.987 4.482 A 7.212 7.212 0 0 1 331.992 4.199 Q 332.031 3.203 332.324 2.344 A 4.243 4.243 0 0 1 333.203 0.84 A 2.723 2.723 0 0 1 334.648 0 A 10.587 10.587 0 0 1 335.547 1.602 Q 335.938 2.461 336.328 3.34 A 18.187 18.187 0 0 0 337.057 4.803 A 16.52 16.52 0 0 0 337.168 5 A 4.519 4.519 0 0 0 338.32 6.328 A 91.03 91.03 0 0 1 338.516 9.121 Q 338.594 10.547 338.633 12.07 Q 338.281 13.828 337.832 15.488 A 21.654 21.654 0 0 0 337.301 18.099 A 24.926 24.926 0 0 0 337.188 19.023 A 2.709 2.709 0 0 0 336.792 19.614 A 3.261 3.261 0 0 0 336.68 19.863 A 29.891 29.891 0 0 0 336.309 20.84 Q 336.133 21.328 335.898 21.797 A 2.737 2.737 0 0 1 335.562 22.319 A 2.343 2.343 0 0 1 335.313 22.578 Q 335.409 22.915 335.409 23.229 A 1.955 1.955 0 0 1 335.371 23.613 Q 335.291 24.013 335.512 24.53 A 3.14 3.14 0 0 0 335.625 24.766 A 6.504 6.504 0 0 1 335.638 25.075 Q 335.653 25.975 335.396 26.627 A 2.768 2.768 0 0 1 335.332 26.777 Q 334.961 27.578 334.316 28.145 A 5.027 5.027 0 0 1 332.832 29.043 Q 331.992 29.375 331.172 29.648 A 8.021 8.021 0 0 1 330.619 29.286 A 7.055 7.055 0 0 1 330.449 29.16 A 2.008 2.008 0 0 0 329.955 28.886 A 2.544 2.544 0 0 0 329.648 28.789 Z M 39.102 22.773 L 41.758 22.773 A 1.25 1.25 0 0 0 41.821 23.004 Q 41.917 23.25 42.109 23.359 A 4.01 4.01 0 0 0 42.656 23.618 A 4.404 4.404 0 0 0 42.695 23.633 A 2.65 2.65 0 0 1 43.148 23.852 A 2.38 2.38 0 0 1 43.262 23.926 A 0.563 0.563 0 0 1 43.49 24.264 Q 43.514 24.361 43.516 24.477 A 1.18 1.18 0 0 1 43.516 24.492 A 2.826 2.826 0 0 1 43.853 24.602 Q 44.307 24.785 44.453 25.078 A 1.207 1.207 0 0 1 44.583 25.625 Q 44.583 25.768 44.551 25.918 A 2.577 2.577 0 0 1 44.379 26.43 A 3.424 3.424 0 0 1 44.16 26.836 Q 43.87 27.301 43.598 27.651 A 7.211 7.211 0 0 1 43.594 27.656 A 0.751 0.751 0 0 0 43.43 27.638 Q 43.246 27.638 43.074 27.734 A 0.995 0.995 0 0 0 42.93 27.832 A 4.802 4.802 0 0 0 42.344 28.398 A 9.373 9.373 0 0 0 41.062 28.309 A 8.861 8.861 0 0 0 40.117 28.359 A 97.574 97.574 0 0 1 39.063 28.467 A 77.192 77.192 0 0 1 38.086 28.555 A 0.33 0.33 0 0 0 38.021 28.574 Q 37.909 28.622 37.925 28.745 A 0.291 0.291 0 0 0 37.93 28.77 A 0.432 0.432 0 0 1 37.937 28.812 Q 37.945 28.878 37.927 28.929 A 0.187 0.187 0 0 1 37.852 29.023 Q 36.641 28.633 35.371 28.711 A 16.404 16.404 0 0 0 32.793 29.082 Q 31.484 29.375 30.117 29.707 A 13.282 13.282 0 0 1 27.344 30.078 Q 26.797 29.727 26.465 29.18 Q 26.133 28.633 25.918 28.008 A 10.133 10.133 0 0 1 25.567 26.705 A 11.117 11.117 0 0 1 25.566 26.699 A 29.061 29.061 0 0 0 25.35 25.707 A 25.8 25.8 0 0 0 25.273 25.391 Q 25.273 25.065 25.357 24.843 A 0.763 0.763 0 0 1 25.508 24.59 A 6.034 6.034 0 0 1 26.016 24.102 A 17.548 17.548 0 0 0 26.878 24.045 Q 27.285 24.008 27.647 23.953 A 10.608 10.608 0 0 0 27.695 23.945 A 171.409 171.409 0 0 0 29.141 23.711 A 52.41 52.41 0 0 1 30.547 23.496 A 10.197 10.197 0 0 1 31.447 23.413 A 12.67 12.67 0 0 1 32.07 23.398 A 117.385 117.385 0 0 0 32.905 21.637 A 101.704 101.704 0 0 0 33.164 21.074 A 544.082 544.082 0 0 1 33.904 19.459 A 475.376 475.376 0 0 1 34.141 18.945 Q 34.375 17.969 34.746 17.129 A 111.383 111.383 0 0 1 35.292 15.913 A 97.172 97.172 0 0 1 35.469 15.527 Q 35.82 14.766 36.094 14.004 A 6.475 6.475 0 0 0 36.432 12.516 A 7.246 7.246 0 0 0 36.445 12.383 A 162.454 162.454 0 0 0 36.89 11.069 A 124.59 124.59 0 0 0 37.285 9.863 A 11.732 11.732 0 0 0 37.576 8.769 Q 37.742 8.01 37.852 7.109 Q 36.524 7.319 35.665 7.513 A 16.029 16.029 0 0 0 35.469 7.559 Q 34.759 7.728 34.366 7.886 A 2.501 2.501 0 0 0 34.18 7.969 Q 33.644 7.942 33.265 7.805 A 1.742 1.742 0 0 1 32.949 7.656 A 2.515 2.515 0 0 1 32.456 7.269 A 2.191 2.191 0 0 1 32.227 6.992 Q 31.953 6.602 31.758 6.094 A 11.229 11.229 0 0 0 31.483 5.444 A 13.374 13.374 0 0 0 31.289 5.039 A 1.071 1.071 0 0 0 31.357 4.824 Q 31.424 4.505 31.368 4.011 A 4.889 4.889 0 0 0 31.367 4.004 A 2.146 2.146 0 0 0 31.288 3.613 Q 31.22 3.393 31.105 3.229 A 1.059 1.059 0 0 0 30.898 3.008 A 0.54 0.54 0 0 0 31.183 2.824 Q 31.25 2.745 31.304 2.635 A 1.407 1.407 0 0 0 31.367 2.48 A 2.012 2.012 0 0 0 31.417 2.316 Q 31.477 2.079 31.445 1.915 A 0.457 0.457 0 0 0 31.406 1.797 A 6.793 6.793 0 0 1 32.617 1.561 A 7.646 7.646 0 0 1 32.813 1.543 A 693.219 693.219 0 0 0 34.277 1.426 A 22.085 22.085 0 0 0 35.328 1.316 A 19.665 19.665 0 0 0 35.664 1.27 A 3.182 3.182 0 0 0 36.244 1.131 A 2.421 2.421 0 0 0 36.797 0.859 A 1345.749 1345.749 0 0 1 39.943 0.742 A 1522.216 1522.216 0 0 1 41.035 0.703 A 171.26 171.26 0 0 0 43.159 0.615 A 134.412 134.412 0 0 0 45.117 0.508 A 4.403 4.403 0 0 0 45.919 0.69 Q 46.304 0.742 46.738 0.742 A 14.484 14.484 0 0 1 48.574 0.859 A 5.031 5.031 0 0 1 49.595 1.095 A 4.223 4.223 0 0 1 50.215 1.367 Q 50.938 1.758 51.211 2.734 A 2.905 2.905 0 0 1 51.548 2.798 Q 51.888 2.886 52.09 3.047 A 1.116 1.116 0 0 1 52.328 3.303 A 0.957 0.957 0 0 1 52.461 3.613 A 2.337 2.337 0 0 1 52.515 3.965 Q 52.529 4.15 52.52 4.355 Q 52.5 4.766 52.5 5.156 A 4.235 4.235 0 0 1 51.804 5.575 Q 51.46 5.742 51.053 5.875 A 7.341 7.341 0 0 1 50.918 5.918 Q 49.961 6.211 48.828 6.387 A 22.007 22.007 0 0 1 46.809 6.602 A 24.552 24.552 0 0 1 46.465 6.621 A 168.658 168.658 0 0 1 44.063 6.719 A 18.747 18.747 0 0 1 43.875 7.749 Q 43.684 8.66 43.379 9.746 A 154 154 0 0 1 42.383 13.145 Q 41.875 14.805 41.504 16.113 Q 41.133 17.422 41.172 17.813 Q 40.781 18.711 40.527 19.336 A 121.531 121.531 0 0 0 40.283 19.941 A 98.805 98.805 0 0 0 40.059 20.508 A 92.264 92.264 0 0 1 39.629 21.582 A 20.026 20.026 0 0 1 39.422 22.07 Q 39.314 22.317 39.188 22.589 A 34.06 34.06 0 0 1 39.102 22.773 Z M 129.336 22.773 L 131.992 22.773 A 1.25 1.25 0 0 0 132.056 23.004 Q 132.151 23.25 132.344 23.359 A 4.01 4.01 0 0 0 132.891 23.618 A 4.404 4.404 0 0 0 132.93 23.633 A 2.65 2.65 0 0 1 133.382 23.852 A 2.38 2.38 0 0 1 133.496 23.926 A 0.563 0.563 0 0 1 133.724 24.264 Q 133.748 24.361 133.75 24.477 A 1.18 1.18 0 0 1 133.75 24.492 A 2.826 2.826 0 0 1 134.087 24.602 Q 134.541 24.785 134.688 25.078 A 1.207 1.207 0 0 1 134.818 25.625 Q 134.818 25.768 134.785 25.918 A 2.577 2.577 0 0 1 134.613 26.43 A 3.424 3.424 0 0 1 134.395 26.836 Q 134.104 27.301 133.832 27.651 A 7.211 7.211 0 0 1 133.828 27.656 A 0.751 0.751 0 0 0 133.665 27.638 Q 133.481 27.638 133.308 27.734 A 0.995 0.995 0 0 0 133.164 27.832 A 4.802 4.802 0 0 0 132.578 28.398 A 9.373 9.373 0 0 0 131.296 28.309 A 8.861 8.861 0 0 0 130.352 28.359 A 97.574 97.574 0 0 1 129.297 28.467 A 77.192 77.192 0 0 1 128.32 28.555 A 0.33 0.33 0 0 0 128.255 28.574 Q 128.143 28.622 128.16 28.745 A 0.291 0.291 0 0 0 128.164 28.77 A 0.432 0.432 0 0 1 128.171 28.812 Q 128.179 28.878 128.161 28.929 A 0.187 0.187 0 0 1 128.086 29.023 Q 126.875 28.633 125.605 28.711 A 16.404 16.404 0 0 0 123.027 29.082 Q 121.719 29.375 120.352 29.707 A 13.282 13.282 0 0 1 117.578 30.078 Q 117.031 29.727 116.699 29.18 Q 116.367 28.633 116.152 28.008 A 10.133 10.133 0 0 1 115.802 26.705 A 11.117 11.117 0 0 1 115.801 26.699 A 29.061 29.061 0 0 0 115.585 25.707 A 25.8 25.8 0 0 0 115.508 25.391 Q 115.508 25.065 115.591 24.843 A 0.763 0.763 0 0 1 115.742 24.59 A 6.034 6.034 0 0 1 116.25 24.102 A 17.548 17.548 0 0 0 117.112 24.045 Q 117.52 24.008 117.882 23.953 A 10.608 10.608 0 0 0 117.93 23.945 A 171.409 171.409 0 0 0 119.375 23.711 A 52.41 52.41 0 0 1 120.781 23.496 A 10.197 10.197 0 0 1 121.682 23.413 A 12.67 12.67 0 0 1 122.305 23.398 A 117.385 117.385 0 0 0 123.14 21.637 A 101.704 101.704 0 0 0 123.398 21.074 A 544.082 544.082 0 0 1 124.138 19.459 A 475.376 475.376 0 0 1 124.375 18.945 Q 124.609 17.969 124.98 17.129 A 111.383 111.383 0 0 1 125.526 15.913 A 97.172 97.172 0 0 1 125.703 15.527 Q 126.055 14.766 126.328 14.004 A 6.475 6.475 0 0 0 126.666 12.516 A 7.246 7.246 0 0 0 126.68 12.383 A 162.454 162.454 0 0 0 127.124 11.069 A 124.59 124.59 0 0 0 127.52 9.863 A 11.732 11.732 0 0 0 127.811 8.769 Q 127.976 8.01 128.086 7.109 Q 126.758 7.319 125.899 7.513 A 16.029 16.029 0 0 0 125.703 7.559 Q 124.994 7.728 124.601 7.886 A 2.501 2.501 0 0 0 124.414 7.969 Q 123.879 7.942 123.499 7.805 A 1.742 1.742 0 0 1 123.184 7.656 A 2.515 2.515 0 0 1 122.691 7.269 A 2.191 2.191 0 0 1 122.461 6.992 Q 122.188 6.602 121.992 6.094 A 11.229 11.229 0 0 0 121.718 5.444 A 13.374 13.374 0 0 0 121.523 5.039 A 1.071 1.071 0 0 0 121.591 4.824 Q 121.658 4.505 121.602 4.011 A 4.889 4.889 0 0 0 121.602 4.004 A 2.146 2.146 0 0 0 121.522 3.613 Q 121.454 3.393 121.34 3.229 A 1.059 1.059 0 0 0 121.133 3.008 A 0.54 0.54 0 0 0 121.417 2.824 Q 121.484 2.745 121.538 2.635 A 1.407 1.407 0 0 0 121.602 2.48 A 2.012 2.012 0 0 0 121.651 2.316 Q 121.712 2.079 121.68 1.915 A 0.457 0.457 0 0 0 121.641 1.797 A 6.793 6.793 0 0 1 122.851 1.561 A 7.646 7.646 0 0 1 123.047 1.543 A 693.219 693.219 0 0 0 124.512 1.426 A 22.085 22.085 0 0 0 125.563 1.316 A 19.665 19.665 0 0 0 125.898 1.27 A 3.182 3.182 0 0 0 126.478 1.131 A 2.421 2.421 0 0 0 127.031 0.859 A 1345.749 1345.749 0 0 1 130.177 0.742 A 1522.216 1522.216 0 0 1 131.27 0.703 A 171.26 171.26 0 0 0 133.394 0.615 A 134.412 134.412 0 0 0 135.352 0.508 A 4.403 4.403 0 0 0 136.153 0.69 Q 136.539 0.742 136.973 0.742 A 14.484 14.484 0 0 1 138.809 0.859 A 5.031 5.031 0 0 1 139.83 1.095 A 4.223 4.223 0 0 1 140.449 1.367 Q 141.172 1.758 141.445 2.734 A 2.905 2.905 0 0 1 141.782 2.798 Q 142.123 2.886 142.324 3.047 A 1.116 1.116 0 0 1 142.562 3.303 A 0.957 0.957 0 0 1 142.695 3.613 A 2.337 2.337 0 0 1 142.749 3.965 Q 142.764 4.15 142.754 4.355 Q 142.734 4.766 142.734 5.156 A 4.235 4.235 0 0 1 142.039 5.575 Q 141.695 5.742 141.287 5.875 A 7.341 7.341 0 0 1 141.152 5.918 Q 140.195 6.211 139.063 6.387 A 22.007 22.007 0 0 1 137.043 6.602 A 24.552 24.552 0 0 1 136.699 6.621 A 168.658 168.658 0 0 1 134.297 6.719 A 18.747 18.747 0 0 1 134.109 7.749 Q 133.918 8.66 133.613 9.746 A 154 154 0 0 1 132.617 13.145 Q 132.109 14.805 131.738 16.113 Q 131.367 17.422 131.406 17.813 Q 131.016 18.711 130.762 19.336 A 121.531 121.531 0 0 0 130.518 19.941 A 98.805 98.805 0 0 0 130.293 20.508 A 92.264 92.264 0 0 1 129.863 21.582 A 20.026 20.026 0 0 1 129.657 22.07 Q 129.548 22.317 129.422 22.589 A 34.06 34.06 0 0 1 129.336 22.773 Z M 364.492 25.313 L 364.922 25.313 A 4.028 4.028 0 0 1 364.78 24.723 Q 364.74 24.469 364.74 24.227 A 2.668 2.668 0 0 1 364.785 23.73 Q 364.922 23.008 365.117 22.324 A 20.209 20.209 0 0 0 365.396 21.239 A 18.025 18.025 0 0 0 365.449 20.996 A 2.096 2.096 0 0 0 365.495 20.56 Q 365.495 20.256 365.409 19.939 A 2.908 2.908 0 0 0 365.313 19.648 Q 365.489 19.754 365.586 19.589 A 0.418 0.418 0 0 0 365.605 19.551 Q 365.679 19.388 365.731 19.159 A 3.428 3.428 0 0 0 365.762 19.004 A 2.949 2.949 0 0 0 365.805 18.551 Q 365.806 18.518 365.806 18.484 A 3.484 3.484 0 0 0 365.801 18.301 Q 365.788 18.051 365.766 17.864 A 3.51 3.51 0 0 0 365.742 17.695 Q 366.25 16.484 366.543 15.195 A 63.85 63.85 0 0 0 367.07 12.637 A 42.998 42.998 0 0 1 367.598 10.176 A 13.486 13.486 0 0 1 368.287 8.095 A 12.393 12.393 0 0 1 368.359 7.93 A 2.089 2.089 0 0 1 368.655 7.909 Q 368.926 7.909 369.21 7.977 A 2.95 2.95 0 0 1 369.512 8.066 A 2.858 2.858 0 0 1 369.812 8.191 Q 370.12 8.342 370.268 8.531 A 0.722 0.722 0 0 1 370.313 8.594 A 10.425 10.425 0 0 0 372.343 6.493 A 11.673 11.673 0 0 0 372.461 6.328 Q 373.398 5 374.355 3.73 A 12.666 12.666 0 0 1 376.523 1.484 A 5.25 5.25 0 0 1 378.465 0.511 A 6.883 6.883 0 0 1 379.531 0.313 Q 380.469 0.977 381.641 1.738 A 6.477 6.477 0 0 1 383.555 3.633 A 9.862 9.862 0 0 1 384.16 4.043 A 9.862 9.862 0 0 0 384.766 4.453 L 384.766 5.039 A 4.618 4.618 0 0 1 385.684 6.23 A 12.22 12.22 0 0 1 386.348 7.676 A 53.893 53.893 0 0 1 386.914 9.219 A 10.934 10.934 0 0 0 387.347 10.281 A 9.471 9.471 0 0 0 387.539 10.664 A 1.387 1.387 0 0 0 387.499 10.81 Q 387.467 10.956 387.48 11.074 A 1.705 1.705 0 0 0 387.559 11.426 A 2.559 2.559 0 0 1 387.618 11.636 A 3.274 3.274 0 0 1 387.656 11.816 A 2.133 2.133 0 0 1 387.68 11.991 Q 387.689 12.087 387.693 12.197 A 4.449 4.449 0 0 1 387.695 12.344 A 6.481 6.481 0 0 1 387.398 13.894 A 4.761 4.761 0 0 1 386.348 15.684 Q 385.156 16.953 383.457 17.754 Q 381.758 18.555 379.844 19.121 A 36.081 36.081 0 0 0 377.802 19.789 A 28.283 28.283 0 0 0 376.367 20.352 Q 376.367 20.503 376.532 20.508 A 0.378 0.378 0 0 0 376.543 20.508 A 0.186 0.186 0 0 1 376.593 20.514 Q 376.702 20.544 376.645 20.729 A 0.693 0.693 0 0 1 376.641 20.742 A 85.704 85.704 0 0 1 377.194 21.077 Q 377.974 21.553 378.457 21.875 A 14.829 14.829 0 0 0 379.082 22.271 A 11.076 11.076 0 0 0 379.668 22.598 A 6.415 6.415 0 0 0 380.502 22.954 A 7.582 7.582 0 0 0 380.918 23.086 A 18.89 18.89 0 0 0 381.293 23.188 Q 381.713 23.299 382.274 23.431 A 66.073 66.073 0 0 0 382.813 23.555 A 124.772 124.772 0 0 1 383.385 23.685 Q 383.941 23.814 384.358 23.916 A 34.941 34.941 0 0 1 384.707 24.004 Q 385.345 24.168 385.864 24.264 A 11.991 11.991 0 0 0 385.938 24.277 A 21.149 21.149 0 0 0 386.652 24.392 A 25.505 25.505 0 0 0 387.109 24.453 A 69.743 69.743 0 0 0 387.449 24.495 Q 387.998 24.561 388.789 24.648 A 3.512 3.512 0 0 1 389.457 25.591 A 3.983 3.983 0 0 1 389.492 25.664 A 5.298 5.298 0 0 1 389.824 26.58 A 4.746 4.746 0 0 1 389.883 26.836 A 3.983 3.983 0 0 1 389.956 27.401 Q 389.961 27.497 389.961 27.591 A 3.24 3.24 0 0 1 389.941 27.949 A 1.953 1.953 0 0 1 389.867 28.315 Q 389.78 28.594 389.609 28.789 A 0.22 0.22 0 0 0 389.637 28.855 Q 389.692 28.94 389.824 28.926 Q 389.974 28.909 390.139 28.935 A 1.431 1.431 0 0 1 390.195 28.945 Q 389.922 29.141 389.727 29.414 L 389.336 29.961 A 3.303 3.303 0 0 1 388.887 30.469 A 1.027 1.027 0 0 1 388.412 30.714 A 1.346 1.346 0 0 1 388.242 30.742 A 4.112 4.112 0 0 1 387.276 30.982 Q 386.196 31.122 384.783 30.812 A 11.614 11.614 0 0 1 384.648 30.781 A 27.127 27.127 0 0 1 383.163 30.388 Q 381.399 29.871 379.063 28.984 A 49.292 49.292 0 0 1 377.982 28.569 Q 377.501 28.377 377.088 28.197 A 21.189 21.189 0 0 1 376.328 27.852 Q 375.273 27.344 374.492 26.855 A 12.138 12.138 0 0 1 373.068 25.818 A 11.27 11.27 0 0 1 373.047 25.801 Q 372.59 25.411 372.041 24.92 A 86.781 86.781 0 0 1 371.523 24.453 Q 371.413 24.49 371.389 24.597 A 0.248 0.248 0 0 0 371.387 24.609 A 0.202 0.202 0 0 1 371.357 24.689 Q 371.329 24.731 371.278 24.755 A 0.263 0.263 0 0 1 371.25 24.766 Q 371.111 25.876 370.864 26.69 A 6.359 6.359 0 0 1 370.645 27.305 Q 370.234 28.281 369.453 29.297 A 2.603 2.603 0 0 0 369.303 29.273 Q 368.937 29.226 368.738 29.323 A 0.408 0.408 0 0 0 368.613 29.414 A 2.322 2.322 0 0 1 368.307 29.692 A 2.915 2.915 0 0 1 368.086 29.844 A 2.049 2.049 0 0 1 367.961 29.865 Q 367.697 29.901 367.539 29.841 A 0.417 0.417 0 0 1 367.5 29.824 A 2.425 2.425 0 0 1 367.255 29.684 A 2.054 2.054 0 0 1 367.148 29.609 A 3.72 3.72 0 0 0 366.96 29.478 A 4.682 4.682 0 0 0 366.797 29.375 Q 366.602 29.258 366.172 29.297 A 41.216 41.216 0 0 0 365.938 28.613 A 0.413 0.413 0 0 0 365.641 28.344 Q 365.516 28.309 365.345 28.318 A 1.465 1.465 0 0 0 365.313 28.32 Q 365.426 27.981 365.393 27.733 A 0.791 0.791 0 0 0 365.391 27.715 A 2.637 2.637 0 0 0 365.327 27.413 A 2.216 2.216 0 0 0 365.273 27.246 A 4.514 4.514 0 0 1 365.14 26.812 A 4.903 4.903 0 0 1 365.137 26.797 A 0.668 0.668 0 0 1 365.117 26.654 Q 365.113 26.489 365.18 26.293 A 1.558 1.558 0 0 1 365.195 26.25 Q 365 26.289 364.844 25.957 Q 364.688 25.625 364.492 25.313 Z M 260.781 26.484 L 260.195 25.898 L 260.703 25.508 L 260.742 24.688 A 95.325 95.325 0 0 1 262.496 20.667 A 86.815 86.815 0 0 1 262.754 20.117 A 334.147 334.147 0 0 1 264.781 15.913 A 364.896 364.896 0 0 1 264.922 15.625 A 77.608 77.608 0 0 1 265.645 14.141 A 41.34 41.34 0 0 0 266.367 12.617 A 1.328 1.328 0 0 1 266.33 12.356 A 1.531 1.531 0 0 1 266.328 12.285 A 0.973 0.973 0 0 1 266.341 12.133 Q 266.353 12.059 266.375 11.976 A 1.968 1.968 0 0 1 266.406 11.875 Q 266.953 11.094 267.285 10.469 Q 267.617 9.844 267.93 9.18 Q 268.281 8.398 268.691 7.617 Q 269.102 6.836 269.727 6.094 L 270 5.703 L 270.43 5.742 A 2.517 2.517 0 0 1 270.74 5.613 A 2.762 2.762 0 0 1 270.762 5.605 Q 270.938 5.547 271.211 5.547 L 271.914 5.664 A 6.843 6.843 0 0 0 274.168 4 A 7.801 7.801 0 0 0 274.199 3.965 A 18.596 18.596 0 0 0 275.196 2.744 Q 275.67 2.115 276.147 1.387 A 30.086 30.086 0 0 0 276.211 1.289 L 276.68 0.625 L 277.305 1.016 A 1.227 1.227 0 0 0 277.433 1.082 Q 277.577 1.146 277.792 1.211 A 5.641 5.641 0 0 0 277.93 1.25 Q 278.359 1.367 278.828 1.523 A 20.666 20.666 0 0 1 280.43 1.973 A 4.042 4.042 0 0 1 280.966 2.188 Q 281.242 2.324 281.454 2.491 A 2.118 2.118 0 0 1 281.641 2.656 L 281.836 3.008 Q 281.914 3.438 281.973 3.789 Q 282.031 4.141 282.109 4.492 A 38.317 38.317 0 0 1 282.383 6.113 A 14.782 14.782 0 0 1 282.48 6.958 A 19.617 19.617 0 0 1 282.539 7.891 A 56.242 56.242 0 0 1 282.91 9.473 Q 283.086 10.273 283.242 11.055 A 43.908 43.908 0 0 0 283.557 12.699 A 38.93 38.93 0 0 0 283.672 13.223 A 12.019 12.019 0 0 0 284.297 15.195 A 6.175 6.175 0 0 1 284.432 15.197 Q 284.697 15.203 284.763 15.233 A 0.093 0.093 0 0 1 284.766 15.234 A 2.922 2.922 0 0 1 285.308 15.071 A 4.026 4.026 0 0 1 285.859 15 L 286.367 14.961 L 286.523 15.43 A 1.395 1.395 0 0 0 286.624 15.562 A 1.783 1.783 0 0 0 286.719 15.664 A 2.288 2.288 0 0 0 286.863 15.796 A 2.928 2.928 0 0 0 286.992 15.898 Q 287.559 15.934 287.852 16.114 A 0.834 0.834 0 0 1 287.91 16.152 A 5.319 5.319 0 0 1 288.147 16.336 Q 288.288 16.452 288.398 16.563 Q 288.458 16.622 288.541 16.694 A 4.209 4.209 0 0 0 288.594 16.738 Q 288.699 16.826 288.773 16.867 A 0.484 0.484 0 0 0 288.789 16.875 L 289.492 17.148 L 289.102 17.891 Q 288.699 18.66 287.901 19.394 A 8.234 8.234 0 0 1 287.793 19.492 Q 286.914 20.273 285.82 20.781 A 3.076 3.076 0 0 1 285.884 21.045 A 2.311 2.311 0 0 1 285.918 21.289 Q 285.934 21.48 285.989 21.723 A 5.061 5.061 0 0 0 286.016 21.836 A 19.998 19.998 0 0 1 286.257 23.352 A 21.889 21.889 0 0 1 286.27 23.457 A 6.71 6.71 0 0 1 286.314 24.233 A 7.439 7.439 0 0 1 286.25 25.195 A 10.186 10.186 0 0 1 285.708 26.381 A 8.435 8.435 0 0 1 285.332 27.012 Q 284.805 27.813 284.082 28.457 A 6.434 6.434 0 0 1 282.461 29.512 A 4.951 4.951 0 0 1 280.586 29.961 Q 280.124 29.862 279.871 29.735 A 1.134 1.134 0 0 1 279.785 29.688 A 5.096 5.096 0 0 1 279.546 29.531 A 3.915 3.915 0 0 1 279.336 29.375 A 4.523 4.523 0 0 0 279.169 29.256 Q 279.006 29.144 278.882 29.086 A 1.018 1.018 0 0 0 278.828 29.062 L 278.32 28.828 L 278.477 28.242 A 0.908 0.908 0 0 0 278.515 28.111 Q 278.564 27.879 278.457 27.695 Q 278.348 27.508 278.051 27.22 A 6.975 6.975 0 0 0 277.891 27.07 A 1.753 1.753 0 0 1 277.67 26.875 A 1.562 1.562 0 0 1 277.617 26.816 A 4.505 4.505 0 0 0 277.49 26.675 A 6.122 6.122 0 0 0 277.344 26.523 L 276.563 25.625 L 277.852 25.273 Q 278.795 25.022 279.232 24.657 A 1.298 1.298 0 0 0 279.414 24.473 Q 279.772 24.025 279.736 22.937 A 6.892 6.892 0 0 0 279.727 22.734 A 6.613 6.613 0 0 0 279.264 22.658 Q 278.757 22.594 278.364 22.637 A 2.307 2.307 0 0 0 278.125 22.676 Q 277.5 22.813 276.875 22.969 A 33.989 33.989 0 0 1 275.225 23.357 A 31.226 31.226 0 0 1 275.117 23.379 A 8.607 8.607 0 0 1 273.997 23.529 A 10.749 10.749 0 0 1 273.242 23.555 A 8.474 8.474 0 0 1 272.337 23.504 A 10.213 10.213 0 0 1 271.836 23.438 L 271.406 23.398 L 271.289 22.969 A 0.155 0.155 0 0 0 271.276 22.909 Q 271.253 22.855 271.191 22.793 L 271.016 22.617 Q 270.884 22.46 270.718 22.232 A 14.765 14.765 0 0 1 270.547 21.992 A 0.967 0.967 0 0 1 270.374 21.472 Q 270.364 21.261 270.43 21.016 A 2.05 2.05 0 0 1 270.172 20.435 A 1.853 1.853 0 0 1 270.117 20.117 A 4.973 4.973 0 0 0 269.945 20.5 A 4.132 4.132 0 0 0 269.863 20.723 A 14.095 14.095 0 0 0 269.728 21.151 A 12.445 12.445 0 0 0 269.688 21.289 L 269.531 21.797 L 269.023 21.875 Q 268.967 21.932 268.92 22.03 A 1.032 1.032 0 0 0 268.887 22.109 Q 268.828 22.266 268.867 22.344 L 269.023 22.773 L 268.633 23.125 Q 268.555 23.242 268.438 23.32 A 1.57 1.57 0 0 0 268.342 23.389 Q 268.286 23.433 268.242 23.477 A 5.411 5.411 0 0 1 268.029 24.291 A 4.992 4.992 0 0 1 268.027 24.297 Q 267.891 24.688 267.734 25.078 A 112.35 112.35 0 0 0 267.408 26.142 A 101.336 101.336 0 0 0 267.363 26.289 A 4.06 4.06 0 0 0 267.187 27.461 L 267.031 27.969 A 1.399 1.399 0 0 1 266.782 28.27 A 1.201 1.201 0 0 1 266.543 28.437 A 7.801 7.801 0 0 1 266.149 28.634 A 6.612 6.612 0 0 1 265.977 28.711 A 3.329 3.329 0 0 0 265.796 28.789 Q 265.605 28.879 265.492 28.969 A 0.718 0.718 0 0 0 265.43 29.023 L 265.313 29.531 L 264.727 29.609 A 42.205 42.205 0 0 1 264.491 29.663 Q 264.199 29.729 264.04 29.759 A 4.574 4.574 0 0 1 264.004 29.766 A 2.312 2.312 0 0 1 263.778 29.795 Q 263.662 29.804 263.533 29.805 A 3.765 3.765 0 0 1 263.516 29.805 L 263.008 29.766 A 27.081 27.081 0 0 0 262.784 29.545 Q 262.54 29.306 262.355 29.139 A 7.619 7.619 0 0 0 262.246 29.043 A 3.092 3.092 0 0 0 261.797 28.722 A 3.723 3.723 0 0 0 261.562 28.594 L 261.328 28.281 A 2.589 2.589 0 0 1 261.222 28.042 Q 261.177 27.922 261.152 27.812 A 1.343 1.343 0 0 1 261.133 27.715 A 4.125 4.125 0 0 0 261.056 27.34 A 4.809 4.809 0 0 0 261.016 27.188 A 3.381 3.381 0 0 0 260.972 26.953 Q 260.898 26.631 260.781 26.484 Z M 138.398 8.008 L 138.398 7.578 A 2.654 2.654 0 0 0 138.336 7.245 A 2.13 2.13 0 0 0 138.262 7.012 Q 138.164 6.758 138.047 6.445 A 8.767 8.767 0 0 1 137.797 5.764 A 10.394 10.394 0 0 1 137.695 5.43 A 3.807 3.807 0 0 1 137.584 4.879 Q 137.547 4.602 137.541 4.288 A 6.776 6.776 0 0 1 137.539 4.141 Q 137.605 3.81 137.699 3.634 A 0.699 0.699 0 0 1 137.734 3.574 A 2.355 2.355 0 0 1 137.837 3.432 Q 137.893 3.36 137.948 3.302 A 1.37 1.37 0 0 1 137.969 3.281 L 138.125 2.578 L 138.711 2.578 A 5.194 5.194 0 0 0 139.355 2.617 L 140 2.617 A 40.723 40.723 0 0 0 143.022 2.502 A 43.91 43.91 0 0 0 143.047 2.5 A 160.08 160.08 0 0 0 146.25 2.227 A 49.355 49.355 0 0 1 148.603 1.979 A 60.355 60.355 0 0 1 150.117 1.875 Q 150.307 1.458 150.367 1.336 A 2.23 2.23 0 0 1 150.371 1.328 L 150.508 1.055 L 150.938 0.82 A 5.56 5.56 0 0 1 151.083 0.816 Q 151.865 0.802 152.188 1.035 A 4.138 4.138 0 0 1 152.429 1.223 Q 152.544 1.319 152.634 1.413 A 1.975 1.975 0 0 1 152.734 1.523 Q 153.75 1.445 154.805 1.309 A 263.621 263.621 0 0 0 156.431 1.093 A 293.637 293.637 0 0 0 156.992 1.016 A 1061.712 1061.712 0 0 1 160.156 0.625 A 25.948 25.948 0 0 1 163.091 0.43 A 23.885 23.885 0 0 1 163.281 0.43 A 20.184 20.184 0 0 1 164.081 0.445 A 16.771 16.771 0 0 1 164.531 0.469 A 15.301 15.301 0 0 1 165.527 0.567 A 13.966 13.966 0 0 1 165.664 0.586 L 166.133 0.938 Q 166.289 1.211 166.523 1.445 A 4.577 4.577 0 0 0 166.812 1.709 A 5.856 5.856 0 0 0 167.07 1.914 A 6.684 6.684 0 0 1 167.705 2.497 A 8.84 8.84 0 0 1 168.223 3.086 A 1.878 1.878 0 0 1 168.562 3.763 Q 168.703 4.262 168.654 4.937 A 5.515 5.515 0 0 1 168.633 5.156 L 168.438 5.547 Q 168.281 5.703 168.047 5.859 L 167.656 6.367 L 167.227 6.367 A 4.183 4.183 0 0 0 167.022 6.372 Q 166.838 6.381 166.712 6.408 A 0.91 0.91 0 0 0 166.641 6.426 A 3.148 3.148 0 0 0 166.483 6.478 Q 166.413 6.503 166.335 6.534 A 6.576 6.576 0 0 0 166.172 6.602 A 2.001 2.001 0 0 1 165.973 6.687 A 2.526 2.526 0 0 1 165.82 6.738 A 12.96 12.96 0 0 0 165.615 6.802 A 17.274 17.274 0 0 0 165.391 6.875 A 14.686 14.686 0 0 0 165.188 6.858 Q 164.902 6.836 164.727 6.836 L 164.18 6.836 A 20.202 20.202 0 0 0 162.8 6.885 A 25.697 25.697 0 0 0 161.641 6.992 A 73.334 73.334 0 0 0 159.005 7.341 A 67.153 67.153 0 0 0 158.984 7.344 A 167.205 167.205 0 0 1 157.622 7.509 A 146.263 146.263 0 0 1 157.188 7.559 Q 156.328 7.656 155.625 7.734 A 181.094 181.094 0 0 1 155.298 8.578 Q 155.148 8.963 155.011 9.307 A 103.711 103.711 0 0 1 154.922 9.531 A 40.092 40.092 0 0 1 154.258 11.094 A 33.782 33.782 0 0 0 153.594 12.676 A 17.025 17.025 0 0 0 153.255 13.632 A 21.801 21.801 0 0 0 153.008 14.453 A 12.972 12.972 0 0 0 152.578 15.142 A 10.119 10.119 0 0 0 152.227 15.801 A 6.423 6.423 0 0 0 151.912 16.581 A 8.223 8.223 0 0 0 151.719 17.266 A 4.215 4.215 0 0 0 151.048 18.281 A 3.841 3.841 0 0 0 150.879 18.711 A 68.081 68.081 0 0 1 150.697 19.264 Q 150.624 19.481 150.557 19.674 A 34.388 34.388 0 0 1 150.43 20.039 L 150.273 20.625 A 3.416 3.416 0 0 0 150.15 20.754 Q 150.042 20.874 149.986 20.966 A 0.528 0.528 0 0 0 149.941 21.055 Q 149.883 21.211 149.727 21.406 Q 149.609 21.914 149.414 22.383 A 13.423 13.423 0 0 0 149.297 22.687 A 15.192 15.192 0 0 0 149.258 22.793 Q 149.18 23.008 149.219 23.125 A 2.778 2.778 0 0 1 149.159 23.386 Q 149.124 23.509 149.081 23.61 A 1.141 1.141 0 0 1 148.984 23.789 A 2.847 2.847 0 0 1 148.945 24.258 L 148.867 24.727 A 6.428 6.428 0 0 0 148.806 24.955 Q 148.772 25.094 148.75 25.215 A 0.787 0.787 0 0 0 148.737 25.356 A 0.718 0.718 0 0 0 148.789 25.625 L 149.023 25.938 A 1.147 1.147 0 0 1 149.131 26.113 Q 149.18 26.211 149.219 26.328 A 0.47 0.47 0 0 0 149.361 26.425 A 0.577 0.577 0 0 0 149.414 26.445 A 0.532 0.532 0 0 1 149.534 26.502 A 0.451 0.451 0 0 1 149.609 26.563 Q 149.922 26.836 150.195 26.875 L 150.586 27.344 A 4.613 4.613 0 0 1 150.635 27.743 Q 150.677 28.28 150.569 28.713 A 1.987 1.987 0 0 1 150.156 29.531 A 2.139 2.139 0 0 1 149.182 30.219 Q 148.607 30.43 147.813 30.43 L 147.266 30.391 A 8.597 8.597 0 0 1 147.171 30.295 Q 146.985 30.103 146.953 30.039 A 43.674 43.674 0 0 0 146.785 29.965 Q 146.543 29.858 146.367 29.785 A 0.836 0.836 0 0 1 146.143 29.644 Q 146.062 29.574 145.987 29.48 A 1.577 1.577 0 0 1 145.938 29.414 Q 145.859 29.336 145.742 29.316 A 0.371 0.371 0 0 1 145.62 29.275 A 0.337 0.337 0 0 1 145.547 29.219 A 3.337 3.337 0 0 1 145.281 29.127 Q 145.156 29.078 145.053 29.023 A 1.545 1.545 0 0 1 144.922 28.945 L 144.492 28.711 Q 144.531 28.32 144.531 28.164 A 3.57 3.57 0 0 1 144.043 27.227 Q 143.867 26.719 143.75 26.172 A 201.487 201.487 0 0 0 143.638 25.762 A 149.495 149.495 0 0 0 143.535 25.391 A 2.045 2.045 0 0 0 143.344 24.926 A 1.833 1.833 0 0 0 143.242 24.766 Q 143.164 22.031 143.75 20.176 A 51.408 51.408 0 0 1 145.039 16.563 A 41.698 41.698 0 0 0 145.781 14.648 Q 146.133 13.672 146.406 12.656 L 146.836 12.227 A 9.785 9.785 0 0 1 146.932 12.146 Q 147.074 12.026 147.146 11.978 A 0.396 0.396 0 0 1 147.187 11.953 A 2.66 2.66 0 0 1 147.383 10.957 A 20.676 20.676 0 0 1 147.755 10.088 A 22.687 22.687 0 0 1 147.813 9.961 A 13.473 13.473 0 0 0 148.105 9.336 Q 148.209 9.098 148.257 8.906 A 1.555 1.555 0 0 0 148.281 8.789 A 6.559 6.559 0 0 0 148.038 8.793 Q 147.923 8.798 147.822 8.806 A 3.864 3.864 0 0 0 147.793 8.809 A 5.869 5.869 0 0 0 147.463 8.848 A 6.781 6.781 0 0 0 147.344 8.867 A 4.571 4.571 0 0 1 146.671 8.972 A 3.913 3.913 0 0 1 146.367 8.984 Q 146.097 8.984 145.942 8.961 A 0.877 0.877 0 0 1 145.859 8.945 A 1.955 1.955 0 0 1 145.598 9.054 Q 145.429 9.11 145.273 9.121 Q 145 9.141 144.727 9.141 L 144.258 9.141 L 143.789 9.141 A 3.07 3.07 0 0 0 143.515 9.152 Q 143.235 9.177 143.047 9.258 L 142.344 9.258 L 141.992 9.258 L 141.523 9.258 L 141.055 9.258 Q 140.742 9.258 140.352 9.199 Q 139.961 9.141 139.531 8.906 L 139.258 8.594 A 2.437 2.437 0 0 0 139.157 8.424 Q 138.981 8.156 138.828 8.125 L 138.398 8.008 Z M 288.164 8.008 L 288.164 7.578 A 2.654 2.654 0 0 0 288.102 7.245 A 2.13 2.13 0 0 0 288.027 7.012 Q 287.93 6.758 287.813 6.445 A 8.767 8.767 0 0 1 287.562 5.764 A 10.394 10.394 0 0 1 287.461 5.43 A 3.807 3.807 0 0 1 287.349 4.879 Q 287.313 4.602 287.306 4.288 A 6.776 6.776 0 0 1 287.305 4.141 Q 287.371 3.81 287.465 3.634 A 0.699 0.699 0 0 1 287.5 3.574 A 2.355 2.355 0 0 1 287.603 3.432 Q 287.658 3.36 287.714 3.302 A 1.37 1.37 0 0 1 287.734 3.281 L 287.891 2.578 L 288.477 2.578 A 5.194 5.194 0 0 0 289.121 2.617 L 289.766 2.617 A 40.723 40.723 0 0 0 292.788 2.502 A 43.91 43.91 0 0 0 292.813 2.5 A 160.08 160.08 0 0 0 296.016 2.227 A 49.355 49.355 0 0 1 298.369 1.979 A 60.355 60.355 0 0 1 299.883 1.875 Q 300.072 1.458 300.133 1.336 A 2.23 2.23 0 0 1 300.137 1.328 L 300.273 1.055 L 300.703 0.82 A 5.56 5.56 0 0 1 300.849 0.816 Q 301.631 0.802 301.953 1.035 A 4.138 4.138 0 0 1 302.195 1.223 Q 302.309 1.319 302.4 1.413 A 1.975 1.975 0 0 1 302.5 1.523 Q 303.516 1.445 304.57 1.309 A 263.621 263.621 0 0 0 306.196 1.093 A 293.637 293.637 0 0 0 306.758 1.016 A 1061.712 1061.712 0 0 1 309.922 0.625 A 25.948 25.948 0 0 1 312.856 0.43 A 23.885 23.885 0 0 1 313.047 0.43 A 20.184 20.184 0 0 1 313.846 0.445 A 16.771 16.771 0 0 1 314.297 0.469 A 15.301 15.301 0 0 1 315.292 0.567 A 13.966 13.966 0 0 1 315.43 0.586 L 315.898 0.938 Q 316.055 1.211 316.289 1.445 A 4.577 4.577 0 0 0 316.577 1.709 A 5.856 5.856 0 0 0 316.836 1.914 A 6.684 6.684 0 0 1 317.471 2.497 A 8.84 8.84 0 0 1 317.988 3.086 A 1.878 1.878 0 0 1 318.328 3.763 Q 318.469 4.262 318.419 4.937 A 5.515 5.515 0 0 1 318.398 5.156 L 318.203 5.547 Q 318.047 5.703 317.813 5.859 L 317.422 6.367 L 316.992 6.367 A 4.183 4.183 0 0 0 316.788 6.372 Q 316.603 6.381 316.478 6.408 A 0.91 0.91 0 0 0 316.406 6.426 A 3.148 3.148 0 0 0 316.249 6.478 Q 316.179 6.503 316.101 6.534 A 6.576 6.576 0 0 0 315.938 6.602 A 2.001 2.001 0 0 1 315.738 6.687 A 2.526 2.526 0 0 1 315.586 6.738 A 12.96 12.96 0 0 0 315.381 6.802 A 17.274 17.274 0 0 0 315.156 6.875 A 14.686 14.686 0 0 0 314.954 6.858 Q 314.668 6.836 314.492 6.836 L 313.945 6.836 A 20.202 20.202 0 0 0 312.565 6.885 A 25.697 25.697 0 0 0 311.406 6.992 A 73.334 73.334 0 0 0 308.77 7.341 A 67.153 67.153 0 0 0 308.75 7.344 A 167.205 167.205 0 0 1 307.388 7.509 A 146.263 146.263 0 0 1 306.953 7.559 Q 306.094 7.656 305.391 7.734 A 181.094 181.094 0 0 1 305.064 8.578 Q 304.913 8.963 304.777 9.307 A 103.711 103.711 0 0 1 304.687 9.531 A 40.092 40.092 0 0 1 304.023 11.094 A 33.782 33.782 0 0 0 303.359 12.676 A 17.025 17.025 0 0 0 303.02 13.632 A 21.801 21.801 0 0 0 302.773 14.453 A 12.972 12.972 0 0 0 302.344 15.142 A 10.119 10.119 0 0 0 301.992 15.801 A 6.423 6.423 0 0 0 301.678 16.581 A 8.223 8.223 0 0 0 301.484 17.266 A 4.215 4.215 0 0 0 300.814 18.281 A 3.841 3.841 0 0 0 300.645 18.711 A 68.081 68.081 0 0 1 300.462 19.264 Q 300.39 19.481 300.323 19.674 A 34.388 34.388 0 0 1 300.195 20.039 L 300.039 20.625 A 3.416 3.416 0 0 0 299.916 20.754 Q 299.808 20.874 299.752 20.966 A 0.528 0.528 0 0 0 299.707 21.055 Q 299.648 21.211 299.492 21.406 Q 299.375 21.914 299.18 22.383 A 13.423 13.423 0 0 0 299.063 22.687 A 15.192 15.192 0 0 0 299.023 22.793 Q 298.945 23.008 298.984 23.125 A 2.778 2.778 0 0 1 298.925 23.386 Q 298.89 23.509 298.846 23.61 A 1.141 1.141 0 0 1 298.75 23.789 A 2.847 2.847 0 0 1 298.711 24.258 L 298.633 24.727 A 6.428 6.428 0 0 0 298.572 24.955 Q 298.538 25.094 298.516 25.215 A 0.787 0.787 0 0 0 298.503 25.356 A 0.718 0.718 0 0 0 298.555 25.625 L 298.789 25.938 A 1.147 1.147 0 0 1 298.896 26.113 Q 298.945 26.211 298.984 26.328 A 0.47 0.47 0 0 0 299.127 26.425 A 0.577 0.577 0 0 0 299.18 26.445 A 0.532 0.532 0 0 1 299.299 26.502 A 0.451 0.451 0 0 1 299.375 26.563 Q 299.688 26.836 299.961 26.875 L 300.352 27.344 A 4.613 4.613 0 0 1 300.401 27.743 Q 300.443 28.28 300.335 28.713 A 1.987 1.987 0 0 1 299.922 29.531 A 2.139 2.139 0 0 1 298.948 30.219 Q 298.373 30.43 297.578 30.43 L 297.031 30.391 A 8.597 8.597 0 0 1 296.937 30.295 Q 296.75 30.103 296.719 30.039 A 43.674 43.674 0 0 0 296.55 29.965 Q 296.309 29.858 296.133 29.785 A 0.836 0.836 0 0 1 295.908 29.644 Q 295.828 29.574 295.753 29.48 A 1.577 1.577 0 0 1 295.703 29.414 Q 295.625 29.336 295.508 29.316 A 0.371 0.371 0 0 1 295.386 29.275 A 0.337 0.337 0 0 1 295.313 29.219 A 3.337 3.337 0 0 1 295.047 29.127 Q 294.921 29.078 294.818 29.023 A 1.545 1.545 0 0 1 294.688 28.945 L 294.258 28.711 Q 294.297 28.32 294.297 28.164 A 3.57 3.57 0 0 1 293.809 27.227 Q 293.633 26.719 293.516 26.172 A 201.487 201.487 0 0 0 293.403 25.762 A 149.495 149.495 0 0 0 293.301 25.391 A 2.045 2.045 0 0 0 293.11 24.926 A 1.833 1.833 0 0 0 293.008 24.766 Q 292.93 22.031 293.516 20.176 A 51.408 51.408 0 0 1 294.805 16.563 A 41.698 41.698 0 0 0 295.547 14.648 Q 295.898 13.672 296.172 12.656 L 296.602 12.227 A 9.785 9.785 0 0 1 296.697 12.146 Q 296.84 12.026 296.912 11.978 A 0.396 0.396 0 0 1 296.953 11.953 A 2.66 2.66 0 0 1 297.148 10.957 A 20.676 20.676 0 0 1 297.52 10.088 A 22.687 22.687 0 0 1 297.578 9.961 A 13.473 13.473 0 0 0 297.871 9.336 Q 297.975 9.098 298.023 8.906 A 1.555 1.555 0 0 0 298.047 8.789 A 6.559 6.559 0 0 0 297.803 8.793 Q 297.689 8.798 297.587 8.806 A 3.864 3.864 0 0 0 297.559 8.809 A 5.869 5.869 0 0 0 297.229 8.848 A 6.781 6.781 0 0 0 297.109 8.867 A 4.571 4.571 0 0 1 296.437 8.972 A 3.913 3.913 0 0 1 296.133 8.984 Q 295.862 8.984 295.707 8.961 A 0.877 0.877 0 0 1 295.625 8.945 A 1.955 1.955 0 0 1 295.364 9.054 Q 295.195 9.11 295.039 9.121 Q 294.766 9.141 294.492 9.141 L 294.023 9.141 L 293.555 9.141 A 3.07 3.07 0 0 0 293.281 9.152 Q 293 9.177 292.813 9.258 L 292.109 9.258 L 291.758 9.258 L 291.289 9.258 L 290.82 9.258 Q 290.508 9.258 290.117 9.199 Q 289.727 9.141 289.297 8.906 L 289.023 8.594 A 2.437 2.437 0 0 0 288.923 8.424 Q 288.746 8.156 288.594 8.125 L 288.164 8.008 Z M 2.624 9.698 A 7.548 7.548 0 0 0 4.453 10.742 A 2.211 2.211 0 0 1 4.832 10.642 Q 5.058 10.603 5.31 10.603 A 3.365 3.365 0 0 1 5.43 10.605 A 1.784 1.784 0 0 0 5.493 10.607 Q 5.997 10.607 6.328 10.313 A 3.321 3.321 0 0 1 6.361 10.097 Q 6.403 9.867 6.475 9.676 A 1.671 1.671 0 0 1 6.699 9.258 A 0.998 0.998 0 0 1 6.909 9.051 Q 7.065 8.936 7.277 8.868 A 2.01 2.01 0 0 1 7.656 8.789 A 4.901 4.901 0 0 1 7.719 9.181 Q 7.756 9.497 7.742 9.777 A 2.613 2.613 0 0 1 7.695 10.156 A 6.129 6.129 0 0 1 7.363 11.27 A 26.222 26.222 0 0 0 6.953 12.344 A 2.679 2.679 0 0 0 6.836 12.795 Q 6.773 13.165 6.797 13.594 A 21.209 21.209 0 0 0 6.776 13.644 Q 6.469 14.392 6.3 14.967 A 6.657 6.657 0 0 0 6.172 15.469 A 1034.507 1034.507 0 0 1 6.021 16.187 A 837.787 837.787 0 0 1 5.879 16.855 A 10.27 10.27 0 0 1 5.804 17.18 A 11.788 11.788 0 0 1 5.508 18.184 A 5.758 5.758 0 0 1 5.305 18.688 Q 5.183 18.958 5.019 19.262 A 14.325 14.325 0 0 1 4.688 19.844 A 0.903 0.903 0 0 0 4.688 19.877 Q 4.694 20.046 4.766 20.117 Q 4.81 20.161 4.854 20.217 A 1.57 1.57 0 0 1 4.922 20.313 A 1.551 1.551 0 0 0 4.414 20.996 Q 4.258 21.406 4.16 21.836 A 15.815 15.815 0 0 1 3.945 22.676 A 1.303 1.303 0 0 1 3.477 23.359 A 2.613 2.613 0 0 1 3.51 23.418 A 2.248 2.248 0 0 1 3.789 24.336 A 1.025 1.025 0 0 0 3.776 24.34 Q 3.681 24.368 3.606 24.411 A 0.557 0.557 0 0 0 3.398 24.609 A 1.377 1.377 0 0 0 3.31 24.785 A 1.683 1.683 0 0 0 3.223 25.059 A 3.092 3.092 0 0 0 3.184 25.255 A 3.697 3.697 0 0 0 3.145 25.605 A 8.208 8.208 0 0 1 3.139 25.678 A 7.477 7.477 0 0 1 3.086 26.172 A 4.372 4.372 0 0 0 3.158 26.383 A 3.772 3.772 0 0 0 3.633 27.285 A 2.059 2.059 0 0 1 3.651 27.311 Q 3.859 27.609 3.859 27.84 A 0.454 0.454 0 0 1 3.789 28.086 A 0.689 0.689 0 0 1 3.926 28.132 Q 4.081 28.202 4.199 28.35 A 1.154 1.154 0 0 1 4.336 28.574 A 2.435 2.435 0 0 1 4.368 28.645 Q 4.524 29.002 4.453 29.18 Q 4.716 29.258 4.89 29.346 A 1.2 1.2 0 0 1 5.039 29.434 A 2.013 2.013 0 0 1 5.391 29.746 L 5.703 30.098 A 1.012 1.012 0 0 0 5.808 30.199 Q 5.951 30.319 6.172 30.43 A 0.993 0.993 0 0 1 6.21 30.393 Q 6.393 30.229 6.588 30.229 A 0.474 0.474 0 0 1 6.66 30.234 Q 6.851 30.264 7.206 30.315 A 179.081 179.081 0 0 0 7.461 30.352 A 1.233 1.233 0 0 0 7.611 30.262 Q 7.844 30.101 8.066 29.805 A 7.578 7.578 0 0 0 8.335 29.424 A 5.663 5.663 0 0 0 8.555 29.063 Q 8.796 29.238 9.088 29.426 A 17.106 17.106 0 0 0 9.57 29.727 A 7.351 7.351 0 0 0 10.076 30.004 A 5.75 5.75 0 0 0 10.703 30.273 A 4.031 4.031 0 0 0 10.964 30.357 Q 11.297 30.451 11.552 30.451 A 1.312 1.312 0 0 0 11.621 30.449 A 0.559 0.559 0 0 0 11.656 30.446 Q 11.916 30.416 11.998 30.145 A 0.895 0.895 0 0 0 12.031 29.961 A 0.462 0.462 0 0 1 12.113 30.003 A 0.281 0.281 0 0 1 12.246 30.215 A 0.277 0.277 0 0 0 12.361 30.414 A 0.439 0.439 0 0 0 12.461 30.469 A 25.627 25.627 0 0 1 12.915 30.391 A 34.543 34.543 0 0 1 13.418 30.313 A 11.574 11.574 0 0 0 13.694 30.268 A 9.986 9.986 0 0 0 14.414 30.117 A 5.198 5.198 0 0 0 14.806 30.003 A 4.066 4.066 0 0 0 15.254 29.824 A 1.741 1.741 0 0 0 15.531 29.662 A 1.259 1.259 0 0 0 15.82 29.375 A 17.753 17.753 0 0 0 20.488 28.027 A 38.677 38.677 0 0 0 24.805 25.781 A 50.23 50.23 0 0 0 24.992 25.62 Q 25.38 25.284 25.508 25.156 A 3.793 3.793 0 0 0 25.625 25.034 A 4.57 4.57 0 0 0 25.82 24.805 Q 25.977 24.609 26.289 24.18 A 11.091 11.091 0 0 1 26.417 24.008 Q 26.653 23.697 27.071 23.177 A 100.275 100.275 0 0 1 27.461 22.695 Q 27.491 22.543 27.474 22.307 A 3.137 3.137 0 0 0 27.461 22.168 A 0.811 0.811 0 0 0 27.446 22.083 A 0.598 0.598 0 0 0 27.148 21.68 A 0.789 0.789 0 0 0 27.152 21.677 Q 27.383 21.443 27.344 21.094 Q 27.319 20.874 27.234 20.616 A 3.851 3.851 0 0 0 27.109 20.293 A 212.859 212.859 0 0 0 27.01 20.066 A 241.58 241.58 0 0 0 26.699 19.355 Q 26.484 18.867 26.367 18.398 A 1.249 1.249 0 0 1 26.203 18.354 Q 26.106 18.321 26.033 18.274 A 0.478 0.478 0 0 1 25.859 18.086 A 5.272 5.272 0 0 0 24.902 16.895 A 14.62 14.62 0 0 0 23.711 15.898 A 44.333 44.333 0 0 1 22.48 14.941 A 6.983 6.983 0 0 1 21.406 13.867 A 14.476 14.476 0 0 1 22.949 12.188 Q 23.789 11.406 24.531 10.527 Q 25.273 9.648 25.762 8.594 A 4.715 4.715 0 0 0 26.118 7.444 Q 26.214 6.91 26.214 6.306 A 7.846 7.846 0 0 0 26.211 6.094 A 0.471 0.471 0 0 0 26.181 6.031 A 0.348 0.348 0 0 0 25.938 5.859 Q 25.758 5.824 25.776 5.624 A 0.502 0.502 0 0 1 25.781 5.586 A 2.322 2.322 0 0 0 25.781 5.547 A 1.941 1.941 0 0 0 25.488 4.531 A 3.556 3.556 0 0 0 25.353 4.33 A 3.921 3.921 0 0 0 24.746 3.672 A 18.339 18.339 0 0 0 23.809 2.91 A 5.564 5.564 0 0 1 23.573 2.721 A 4.754 4.754 0 0 1 22.969 2.109 Q 22.617 2.109 22.324 1.875 A 15.032 15.032 0 0 1 22.021 1.626 A 19.269 19.269 0 0 1 21.699 1.348 A 4.898 4.898 0 0 0 20.977 0.82 A 1.589 1.589 0 0 0 20.592 0.654 A 1.871 1.871 0 0 0 20.078 0.586 A 0.316 0.316 0 0 0 20.039 0.605 Q 19.918 0.674 20.009 0.802 A 0.448 0.448 0 0 0 20.039 0.84 A 1.138 1.138 0 0 1 20.048 0.85 Q 20.182 1.005 20.056 0.98 A 0.322 0.322 0 0 1 20.039 0.977 A 3.328 3.328 0 0 0 19.939 0.91 Q 19.485 0.619 19.063 0.566 A 1.747 1.747 0 0 1 18.987 0.555 Q 18.827 0.528 18.697 0.474 A 0.884 0.884 0 0 1 18.359 0.234 A 1.373 1.373 0 0 1 18.276 0.267 Q 18.146 0.313 17.993 0.339 A 2.484 2.484 0 0 1 17.695 0.371 A 14.784 14.784 0 0 1 17.498 0.38 A 17.042 17.042 0 0 1 16.875 0.391 A 18.268 18.268 0 0 0 16.663 0.392 A 15.881 15.881 0 0 0 16.055 0.41 A 2.143 2.143 0 0 0 16.044 0.411 Q 15.876 0.42 15.73 0.455 A 1.273 1.273 0 0 0 15.391 0.586 Q 14.729 0.549 14.092 0.565 A 13.529 13.529 0 0 0 11.484 0.879 A 59.894 59.894 0 0 0 10.977 0.995 Q 10.227 1.169 9.555 1.347 A 35.731 35.731 0 0 0 8.242 1.719 A 1.813 1.813 0 0 0 8.217 1.699 Q 8.047 1.568 8.047 1.641 A 0.033 0.033 0 0 1 8.035 1.668 Q 7.995 1.701 7.813 1.641 A 45.445 45.445 0 0 0 7.241 1.763 A 51.114 51.114 0 0 0 5.469 2.188 A 12.84 12.84 0 0 0 3.184 3.008 A 9.841 9.841 0 0 0 3.117 3.04 A 8.865 8.865 0 0 0 1.25 4.238 A 4.181 4.181 0 0 0 0 6.016 A 11.145 11.145 0 0 0 0.263 6.616 A 9.529 9.529 0 0 0 1.738 8.867 A 6.682 6.682 0 0 0 2.624 9.698 Z M 95.449 24.063 A 6.888 6.888 0 0 0 97.305 26.211 A 4.019 4.019 0 0 1 97.326 26.216 Q 98.092 26.412 98.555 26.855 A 12.57 12.57 0 0 1 99.453 27.813 A 34.913 34.913 0 0 0 101.149 28.339 A 42.467 42.467 0 0 0 104.219 29.082 A 32.764 32.764 0 0 0 104.861 29.207 A 29.479 29.479 0 0 0 109.258 29.688 A 3.613 3.613 0 0 1 110.254 29.434 A 9.543 9.543 0 0 1 111.309 29.375 A 13.994 13.994 0 0 1 111.472 29.376 A 12.525 12.525 0 0 1 112.324 29.414 A 6.504 6.504 0 0 0 112.531 29.427 Q 112.76 29.438 112.955 29.43 A 3.133 3.133 0 0 0 113.164 29.414 A 124.294 124.294 0 0 0 114.727 28.223 A 15.259 15.259 0 0 0 116.172 26.953 A 3.965 3.965 0 0 0 116.195 26.767 Q 116.263 26.103 116.074 25.605 A 3.719 3.719 0 0 0 116.04 25.518 A 3.27 3.27 0 0 0 115.488 24.609 A 9.079 9.079 0 0 0 115.391 24.499 A 10.049 10.049 0 0 0 114.668 23.77 Q 114.219 23.359 113.867 22.891 A 138.733 138.733 0 0 1 106.934 22.637 A 32.417 32.417 0 0 1 106.065 22.572 A 28.804 28.804 0 0 1 100.313 21.484 A 80.212 80.212 0 0 1 99.785 20.41 A 2.79 2.79 0 0 1 99.746 20.325 Q 99.525 19.824 99.453 19.141 Q 99.727 18.789 99.961 18.438 Q 100.124 18.193 100.174 17.798 A 3.024 3.024 0 0 0 100.195 17.422 Q 100.898 16.719 101.602 15.996 Q 102.305 15.273 103.066 14.609 A 12.706 12.706 0 0 1 104.707 13.398 A 7.056 7.056 0 0 1 105.248 13.094 A 8.069 8.069 0 0 1 106.68 12.539 A 6.441 6.441 0 0 1 106.689 12.528 A 6.745 6.745 0 0 1 108.145 11.309 A 11.649 11.649 0 0 1 109.941 10.391 Q 110.898 10 111.934 9.688 Q 112.969 9.375 114.18 9.063 A 3.793 3.793 0 0 0 115.101 8.677 A 4.566 4.566 0 0 0 116.035 7.949 A 5.341 5.341 0 0 0 116.466 7.464 A 4.249 4.249 0 0 0 117.188 6.113 Q 117.326 5.671 117.326 5.243 A 2.643 2.643 0 0 0 117.109 4.199 A 1.866 1.866 0 0 0 116.645 3.553 Q 116.388 3.317 116.023 3.132 A 4.463 4.463 0 0 0 115.313 2.852 A 2.191 2.191 0 0 1 115.326 2.766 Q 115.351 2.632 115.387 2.544 A 0.469 0.469 0 0 1 115.43 2.461 A 0.13 0.13 0 0 0 115.452 2.388 Q 115.452 2.311 115.37 2.212 A 0.875 0.875 0 0 0 115.313 2.148 A 3.352 3.352 0 0 1 115.269 2.142 Q 114.948 2.092 114.732 1.992 A 0.964 0.964 0 0 1 114.512 1.855 A 0.652 0.652 0 0 0 114.328 1.745 Q 114.178 1.686 113.993 1.701 A 1.084 1.084 0 0 0 113.867 1.719 Q 113.898 1.658 113.988 1.501 A 20.728 20.728 0 0 1 114.043 1.406 A 0.417 0.417 0 0 0 114.064 1.366 Q 114.152 1.168 113.867 1.133 A 1.416 1.416 0 0 1 113.841 1.191 Q 113.753 1.372 113.677 1.372 A 0.066 0.066 0 0 1 113.652 1.367 A 0.333 0.333 0 0 1 113.626 1.355 Q 113.565 1.325 113.492 1.261 A 1.451 1.451 0 0 1 113.418 1.191 A 2.731 2.731 0 0 0 113.125 0.938 Q 112.969 0.82 112.734 0.859 A 7.273 7.273 0 0 1 112.363 0.972 A 9.43 9.43 0 0 1 111.953 1.074 Q 111.669 1.139 111.471 1.024 A 0.606 0.606 0 0 1 111.289 0.859 A 2.301 2.301 0 0 1 110.488 1.602 Q 110 1.875 109.473 2.109 A 19.47 19.47 0 0 0 108.418 2.617 Q 107.891 2.891 107.539 3.281 A 7.43 7.43 0 0 0 106.812 3.494 A 5.824 5.824 0 0 0 105.82 3.945 Q 105.078 4.375 104.375 4.883 Q 103.672 5.391 102.91 5.82 A 5.966 5.966 0 0 1 102.229 6.148 A 7.337 7.337 0 0 1 101.172 6.484 A 2.352 2.352 0 0 1 100.586 7.09 L 99.883 7.598 Q 99.531 7.852 99.219 8.164 A 2.003 2.003 0 0 0 98.75 8.906 A 0.82 0.82 0 0 0 98.32 8.789 A 71.785 71.785 0 0 1 96.973 10.254 A 21.16 21.16 0 0 0 95.664 11.777 A 14.59 14.59 0 0 0 94.531 13.457 A 9.516 9.516 0 0 0 94.272 13.936 A 10.862 10.862 0 0 0 93.672 15.391 A 22.753 22.753 0 0 0 93.663 16.022 Q 93.663 17.14 93.77 18.34 Q 93.906 19.883 94.316 21.328 A 12.611 12.611 0 0 0 95.449 24.063 Z M 168.32 30.664 L 167.656 30.898 A 6.055 6.055 0 0 1 165.894 30.402 Q 164.004 29.515 163.477 27.266 L 163.516 26.836 L 163.867 25.781 A 21.959 21.959 0 0 1 164.297 24.473 A 2.871 2.871 0 0 1 164.93 23.466 A 3.431 3.431 0 0 1 165.078 23.32 Q 165.167 23.053 165.38 22.572 A 25.677 25.677 0 0 1 165.527 22.246 Q 165.859 21.523 166.641 20.078 A 691.259 691.259 0 0 1 166.937 19.541 Q 167.358 18.779 167.637 18.281 A 29.413 29.413 0 0 1 167.814 17.969 Q 168.007 17.632 168.156 17.399 A 7.331 7.331 0 0 1 168.242 17.266 Q 167.852 16.563 167.148 15.898 A 28.645 28.645 0 0 1 166.436 14.472 A 23.496 23.496 0 0 1 166.074 13.652 A 19.984 19.984 0 0 1 165.722 12.754 Q 165.522 12.202 165.391 11.719 A 8.227 8.227 0 0 0 165.158 10.109 A 9.343 9.343 0 0 0 165.078 9.805 L 164.844 8.789 A 4.676 4.676 0 0 1 164.727 7.734 A 2.188 2.188 0 0 1 164.615 7.507 Q 164.56 7.378 164.511 7.225 A 4.496 4.496 0 0 1 164.453 7.031 L 164.531 6.563 A 0.833 0.833 0 0 0 164.64 6.281 Q 164.688 6.041 164.629 5.723 A 11.537 11.537 0 0 0 164.394 4.717 A 12.626 12.626 0 0 0 164.375 4.648 A 18.826 18.826 0 0 1 164.213 3.871 A 21.783 21.783 0 0 1 164.16 3.574 A 4.697 4.697 0 0 1 164.09 2.775 A 4.407 4.407 0 0 1 164.102 2.461 Q 164.141 1.914 164.395 1.406 A 1.78 1.78 0 0 1 164.798 0.884 Q 164.981 0.718 165.223 0.576 A 3.166 3.166 0 0 1 165.273 0.547 L 165.664 0.273 L 166.055 0.508 A 10.178 10.178 0 0 0 166.526 0.791 A 8.077 8.077 0 0 0 166.875 0.977 L 167.656 1.367 Q 168.125 1.602 168.594 1.855 A 45.344 45.344 0 0 1 169.082 2.124 A 58.214 58.214 0 0 1 169.609 2.422 L 170 2.695 L 169.961 3.125 Q 169.961 3.177 169.979 3.248 A 1.009 1.009 0 0 0 170 3.32 A 0.532 0.532 0 0 0 170.056 3.44 A 0.451 0.451 0 0 0 170.117 3.516 L 170.547 3.633 L 170.586 4.18 L 170.586 4.648 A 4.999 4.999 0 0 0 170.588 4.808 Q 170.595 5.026 170.623 5.13 A 0.442 0.442 0 0 0 170.625 5.137 A 0.704 0.704 0 0 0 170.674 5.259 Q 170.715 5.341 170.781 5.43 L 170.977 5.938 A 7.203 7.203 0 0 0 171.002 6.562 Q 171.031 6.897 171.094 7.188 A 16.775 16.775 0 0 0 171.367 8.281 Q 171.563 8.828 171.68 9.395 A 3.457 3.457 0 0 1 171.748 9.993 Q 171.757 10.297 171.719 10.625 Q 171.938 10.515 172.158 10.302 A 2.591 2.591 0 0 0 172.187 10.273 A 1.987 1.987 0 0 1 172.293 10.176 A 2.393 2.393 0 0 1 172.363 10.117 A 2.872 2.872 0 0 1 172.493 10.02 A 3.43 3.43 0 0 1 172.578 9.961 L 175.313 6.25 L 175.234 5.781 L 176.211 4.844 A 11.975 11.975 0 0 0 176.953 4.199 A 3.048 3.048 0 0 0 177.539 3.438 L 177.773 3.086 Q 179.531 0.742 182.305 0.195 L 182.969 0.039 L 183.164 0.664 A 1.836 1.836 0 0 0 183.567 1.309 A 2.535 2.535 0 0 0 183.926 1.621 A 14.914 14.914 0 0 0 184.825 2.222 A 17.248 17.248 0 0 0 185.156 2.422 L 185.586 2.695 A 4.147 4.147 0 0 1 185.688 2.915 Q 185.82 3.223 185.82 3.398 Q 185.82 3.573 185.799 3.704 A 1.068 1.068 0 0 1 185.781 3.789 L 185.977 4.297 A 7.829 7.829 0 0 1 185.715 4.913 Q 185.396 5.575 185.039 5.918 A 14.005 14.005 0 0 1 183.984 6.836 A 11.129 11.129 0 0 0 183.43 7.319 A 9.427 9.427 0 0 0 183.203 7.539 Q 182.852 7.891 182.656 8.32 L 182.344 8.711 A 2.663 2.663 0 0 0 181.634 9.234 A 2.254 2.254 0 0 0 181.094 10.195 L 180.938 10.742 L 180.352 10.742 Q 180.313 10.742 180.156 10.918 A 0.965 0.965 0 0 0 180.08 11.018 Q 179.957 11.202 179.767 11.591 A 14.072 14.072 0 0 0 179.688 11.758 Q 179.336 12.227 179.199 12.363 L 178.984 12.578 A 21.008 21.008 0 0 0 178.915 12.753 Q 178.883 12.835 178.856 12.909 A 12.608 12.608 0 0 0 178.848 12.93 Q 178.79 13.084 178.713 13.315 A 19.413 19.413 0 0 0 178.711 13.32 L 178.477 13.633 A 3.174 3.174 0 0 0 178.243 13.862 Q 178.133 13.982 178.053 14.099 A 1.523 1.523 0 0 0 177.969 14.238 A 23.414 23.414 0 0 0 177.825 14.513 Q 177.751 14.655 177.671 14.814 A 41.564 41.564 0 0 0 177.617 14.922 Q 177.461 15.273 177.266 15.645 A 2.719 2.719 0 0 1 176.983 16.073 A 3.533 3.533 0 0 1 176.719 16.367 L 176.797 16.797 L 176.484 17.07 A 2.475 2.475 0 0 0 176.094 17.508 A 3.044 3.044 0 0 0 175.938 17.754 A 48.589 48.589 0 0 0 175.469 18.594 A 16.551 16.551 0 0 1 174.961 19.531 A 3.6 3.6 0 0 1 174.337 20.317 A 4.079 4.079 0 0 1 174.258 20.391 Q 173.984 21.094 173.77 21.484 Q 173.574 21.839 173.137 22.323 A 9.7 9.7 0 0 1 173.047 22.422 A 7.699 7.699 0 0 1 172.453 23.99 Q 172.086 24.725 171.543 25.497 A 16.49 16.49 0 0 1 170.82 26.445 A 2.208 2.208 0 0 1 170.607 27.205 A 2.551 2.551 0 0 1 170.566 27.285 A 8.688 8.688 0 0 1 170.233 27.867 A 7.575 7.575 0 0 1 170.117 28.047 A 7.803 7.803 0 0 1 170.034 28.208 A 9.635 9.635 0 0 1 169.941 28.379 Q 169.844 28.555 169.805 28.633 L 169.688 29.063 A 4.392 4.392 0 0 1 169.482 29.403 Q 169.374 29.564 169.262 29.695 A 2.43 2.43 0 0 1 169.199 29.766 A 20.389 20.389 0 0 1 168.889 30.092 A 17.058 17.058 0 0 1 168.711 30.273 A 0.988 0.988 0 0 0 168.527 30.433 A 1.133 1.133 0 0 0 168.496 30.469 A 3.958 3.958 0 0 1 168.426 30.551 Q 168.39 30.591 168.358 30.625 A 2.011 2.011 0 0 1 168.32 30.664 Z M 21.641 18.281 A 10.465 10.465 0 0 0 20.563 17.759 Q 19.695 17.402 18.926 17.305 Q 18.347 17.231 17.794 17.231 A 7.758 7.758 0 0 0 16.582 17.324 A 15.48 15.48 0 0 0 14.58 17.774 A 14.238 14.238 0 0 0 14.453 17.813 A 14.29 14.29 0 0 1 12.422 18.281 A 75.925 75.925 0 0 0 11.904 19.678 A 98.551 98.551 0 0 0 11.367 21.211 A 452.093 452.093 0 0 0 10.312 24.336 A 15.72 15.72 0 0 0 11.9 24.035 A 12.757 12.757 0 0 0 12.891 23.75 A 24.764 24.764 0 0 0 15.156 22.871 A 172.271 172.271 0 0 0 17.305 21.895 A 33.403 33.403 0 0 1 19.492 20.977 A 1.246 1.246 0 0 1 20 20.234 A 27.442 27.442 0 0 1 20.781 19.707 A 3.388 3.388 0 0 0 21.224 19.367 A 2.859 2.859 0 0 0 21.445 19.141 A 0.844 0.844 0 0 0 21.639 18.729 Q 21.676 18.529 21.641 18.281 Z M 272.695 15.703 L 272.656 15.742 A 25.331 25.331 0 0 0 271.602 17.383 A 3.834 3.834 0 0 1 272.017 17.346 A 3.386 3.386 0 0 1 272.129 17.344 A 3.614 3.614 0 0 0 272.521 17.322 A 4.11 4.11 0 0 0 272.656 17.305 A 67.167 67.167 0 0 0 273.975 17.217 A 53.58 53.58 0 0 0 275.195 17.109 A 23.639 23.639 0 0 0 276.575 16.928 A 30.427 30.427 0 0 0 277.734 16.719 A 104.497 104.497 0 0 0 277.051 13.77 Q 276.68 12.266 276.25 10.742 L 276.055 11.133 Q 275.078 12.188 274.18 13.398 A 21.789 21.789 0 0 0 273.359 14.58 A 16.259 16.259 0 0 0 272.695 15.703 Z M 18.906 6.055 A 19.987 19.987 0 0 0 18.262 6.044 A 19.406 19.406 0 0 0 14.141 6.484 A 15.757 15.757 0 0 0 12.232 7.018 Q 11.096 7.419 10.195 7.969 Q 10.977 8.633 11.816 9.141 A 3.292 3.292 0 0 1 13.086 10.508 A 12.932 12.932 0 0 0 15.345 9.357 A 11.14 11.14 0 0 0 16.367 8.613 A 17.467 17.467 0 0 0 18.906 6.055 Z M 377.109 9.746 A 8.744 8.744 0 0 0 378.242 8.398 Q 378.776 8.584 379.282 8.969 A 5.453 5.453 0 0 1 379.961 9.59 A 3.656 3.656 0 0 1 380.715 10.833 A 5.069 5.069 0 0 1 380.977 11.914 A 316.878 316.878 0 0 1 379.326 12.593 A 374.094 374.094 0 0 1 377.578 13.301 A 15.658 15.658 0 0 1 376.144 13.801 A 12.279 12.279 0 0 1 374.141 14.219 A 6.229 6.229 0 0 1 374.354 13.381 A 4.695 4.695 0 0 1 374.805 12.402 A 8.731 8.731 0 0 1 375.879 10.996 A 37.231 37.231 0 0 1 377.109 9.746 Z" vector-effect="non-scaling-stroke"/></g></svg>